<svg xmlns="http://www.w3.org/2000/svg" xmlns:xlink="http://www.w3.org/1999/xlink" width="375" height="667" viewBox="0 0 375 667">
  <defs>
    <clipPath id="clip-path">
      <path id="Path_69197" data-name="Path 69197" d="M0,0H375V667H0Z" transform="translate(0 -91)" fill="none"/>
    </clipPath>
  </defs>
  <g id="ngo_howItworks-mobile" transform="translate(0 91)">
    <g id="Group_27290" data-name="Group 27290" clip-path="url(#clip-path)">
      <g id="Group_27275" data-name="Group 27275">
        <path id="Path_69113" data-name="Path 69113" d="M146.7,512.2a71.13,71.13,0,0,0-1.7,28.3c.7-1.4,1.8-3,3.3-2.7,1.1.2,2,1.5,3,1.1a2.9,2.9,0,0,0,1.1-1.1c1.5-1.6,4.1-.9,6.1-.2-.4-1.3,1.3-2.5,2.7-2.4s2.7.9,4,1.1,3.1-.7,3-2a2.1,2.1,0,0,0-.4-1.1,47.36,47.36,0,0,1-5.1-23.1" fill="none" stroke="#000" stroke-miterlimit="10" stroke-width="0.83"/>
        <path id="Path_69114" data-name="Path 69114" d="M151.9,537.9l-.8-12.2m7.2,10.8-.4-11.1m-11.1-13.2c.6-2.1,4.2-2.4,5.2-.4,1.1-2.6,5-3.5,7-1.6a1.53,1.53,0,0,1,2.3-1m-15.6,3.7a52.69,52.69,0,0,1-1.7-30.2" fill="none" stroke="#000" stroke-miterlimit="10" stroke-width="0.83"/>
      </g>
      <path id="Path_69115" data-name="Path 69115" d="M144,482.8a.76.76,0,0,0-.2.4,2.62,2.62,0,0,0,1.4,3,7.76,7.76,0,0,0,4,.4l.2-3.6a3.19,3.19,0,0,0,4,2.12l.32-.12-.5-4a5.71,5.71,0,0,0,6.4,2.7c-1.5-1.4-1.2-3.9-1.2-5.9a19.2,19.2,0,0,0-2.5-9.9c-1.8-3.1-5.2-5.9-8.8-5.1-3.4.7-5.4,4.5-5.3,7.9s1.7,6.6,3.3,9.7Z"/>
      <g id="Group_27276" data-name="Group 27276">
        <path id="Path_69116" data-name="Path 69116" d="M142.8,489.6a13.19,13.19,0,0,1-3.8-9.2l2.2-.1a2.55,2.55,0,0,1,2.9-3.2m-5.6,2.9a37.47,37.47,0,0,1-4.5-24.3m7.6,11.9a20,20,0,0,1-2.6-7.8m-5.8-4.7.3-7.8a2.6,2.6,0,0,1,2.7,2.2,7.06,7.06,0,0,1-.5,3.8m.5.7c-.8-1.2.7-3,2.1-2.5V454a1.19,1.19,0,0,1,1.5-.7c.3,1.2.6,2.6-.1,3.7s-2.7,1.2-3,0m20.6,23.2a18.6,18.6,0,0,0,11.4,1.3,3.35,3.35,0,0,1-2,4.28h-.07c1,.9.5,2.8-.6,3.6a6.14,6.14,0,0,1-4,.7" fill="none" stroke="#000" stroke-miterlimit="10" stroke-width="0.83"/>
        <path id="Path_69117" data-name="Path 69117" d="M163.4,490.6l.1,18.8m4.7-25.7a48.881,48.881,0,0,0,17.8-3.3c0-.6.1-1.2.1-1.7m-20.3,9.7a44.612,44.612,0,0,0,12.1-.3c4-.8,7.9-2.7,10.1-6.1m-15.1-2c2.8,1.2,6.2,1.8,8.9.2s3.6-5.3,2.7-8.2a10.93,10.93,0,0,0-6.4-6.4,6.23,6.23,0,0,0-3.8-.5,5.55,5.55,0,0,0-2.5,1.8,9.83,9.83,0,0,0,1.9,13.7m-8.2.7a60.57,60.57,0,0,1-4.8-21.8m33.1,18.7a61,61,0,0,0-14-24.1m-16.1,2.1a31.289,31.289,0,0,1,10.5-4.4,2,2,0,0,1,3,1.7l.7,3.2c.1.6.3,1.4-.1,1.9a3.589,3.589,0,0,1-1,.7,44.8,44.8,0,0,1-6.2,2,8.76,8.76,0,0,1-4.8.2c-1.5-.6-2.7-2.3-2.1-3.8" fill="none" stroke="#000" stroke-miterlimit="10" stroke-width="0.83"/>
        <path id="Path_69118" data-name="Path 69118" d="M167,455.2l2,5.1m.4-6.1,2.1,5m-.8-6.7,2.2,6.9m.8-7.3a16.68,16.68,0,0,0,1.4,7.3m-10.9-3.1a13.741,13.741,0,0,0-5.1,1.9,2.7,2.7,0,0,0-.8.7c-.6,1.1,1,2.2,2.3,2s2.3-1.2,3.5-1.4m12-5.9a12.311,12.311,0,0,1,4.3-2.8l.6,3.2a4.09,4.09,0,0,0-2.4.4m-13.3,6.4c-1.5,1.7-1,4.5,0,6.5s2.5,4,2.7,6.3m8.1-14a33.71,33.71,0,0,1,3.9,6.6" fill="none" stroke="#000" stroke-miterlimit="10" stroke-width="0.83"/>
        <path id="Path_69119" data-name="Path 69119" d="M170.6,455.2c-9.5-6.6-19.4-12.7-29.4-18.3-8.7-4.8-17.6-9.4-24.8-16.2-5.4-5.1-9.6-11.3-13.8-17.5L76.7,364.9M62.8,362a131.19,131.19,0,0,1,1.4-16.6,64.441,64.441,0,0,1,17.1,7.8c-1.3,4-1.8,9.6-6.2,11.2C73.5,364.9,62.8,363.1,62.8,362Z" fill="none" stroke="#000" stroke-miterlimit="10" stroke-width="0.83"/>
        <path id="Path_69120" data-name="Path 69120" d="M76.2,365.2a7.85,7.85,0,0,0-.6,9.9,4.92,4.92,0,0,1,1,1.5c1.2,2.9-3.9,6-2.2,8.6a5.63,5.63,0,0,0,3.2,1.3c1.2,0,2.4-1.2,2-2.3-1.6.4-2.3-2.1-1.7-3.6s1.7-3.2.9-4.6c-.5-1-1.7-1.4-2.4-2.3-1.9-2.3.8-5.8.1-8.7M192.8,475.4c2,7.1,1.6,14.8,0,22.1s-4.4,14.2-7.2,21.1m1.8-13.9q-7.65,2.85-15.6,5.4m-5.2-21.2a27.81,27.81,0,0,1,4.2,20.8m14.1,7.5-11.5,5.2m6.6-10.7-.2,6.1m-8.8-8.2a27.48,27.48,0,0,0-3.6,15.6l6.6-3m-28,16.6a45.17,45.17,0,0,1,.7,15.1c-1.4-1.3-4.1.3-3.7,2.1.4,2,3.1,2.5,5.2,2.1a2.32,2.32,0,0,0,1-.4c.3-.3.3-.8.4-1.2a111.821,111.821,0,0,0,0-18.3" fill="none" stroke="#000" stroke-miterlimit="10" stroke-width="0.83"/>
        <path id="Path_69121" data-name="Path 69121" d="M163.9,536.6l.4,14.9c0,1.9-.5,4.6-2.5,4.6a2.61,2.61,0,0,1-2.3-2.6,11.56,11.56,0,0,1,.7-3.7,19.15,19.15,0,0,0-1.3-13.9m26.7-18.8a130.391,130.391,0,0,1,10.4,29m-.5-2.8a4.72,4.72,0,0,1,3.3-.4,8.07,8.07,0,0,1-4.1,7.5,1.68,1.68,0,0,1-1.5.3,1.77,1.77,0,0,1-.9-.8,77.58,77.58,0,0,1-12.2-26.4m-12.4,1,3.8,29.7c.1.6.4,1.4,1,1.2m-1.8-.3a6.3,6.3,0,0,1-4.9-4.4h3.4m10.8-40c-1.6,12.1-3.2,24.1-4.1,36.3-.2,2.9-.4,5.9-1.6,8.6" fill="none" stroke="#000" stroke-miterlimit="10" stroke-width="0.83"/>
      </g>
      <path id="Path_69122" data-name="Path 69122" d="M172.4,479.1a2.64,2.64,0,0,0,4.1-1.2,2.29,2.29,0,0,0,2.4,1l.3-2.6a3.32,3.32,0,0,1,2.6,1.3,3.72,3.72,0,0,0,1.3-2.8h2.7a9.58,9.58,0,0,0-3.5-7.1,22.19,22.19,0,0,0-7.1-3.8,1.41,1.41,0,0,0-.9-.1,1.8,1.8,0,0,0-.9.6l-3.9,3.7-.4.4a1.27,1.27,0,0,0-.1.6,14.42,14.42,0,0,0,.8,6.5,8.06,8.06,0,0,0,2.6,3.5Z"/>
      <g id="Group_27279" data-name="Group 27279">
        <g id="Group_27277" data-name="Group 27277">
          <path id="Path_69123" data-name="Path 69123" d="M62.7,361.6A15.56,15.56,0,0,1,78,355" fill="none" stroke="#000" stroke-miterlimit="10" stroke-width="0.83"/>
          <path id="Path_69124" data-name="Path 69124" d="M64.3,346.8l4.4,7.3c1.9,3.1,3.9,6.4,6.9,8.3" fill="none" stroke="#000" stroke-miterlimit="10" stroke-width="0.83"/>
        </g>
        <path id="Path_69125" data-name="Path 69125" d="M109,436c2.5-3.3,8.1-2.3,10.7.9s3,7.6,3.3,11.7c-1.3.6-2.8.3-4.2.7-2.2.6-3.5,2.8-5.1,4.4s-4.5,2.6-6,.9c1.3-2.1-1.1-5.2-3.4-4.6s-2.8,4.5-.6,5.7" fill="none" stroke="#000" stroke-miterlimit="10" stroke-width="1"/>
        <path id="Path_69126" data-name="Path 69126" d="M118.9,448.5a6.94,6.94,0,0,0-5.6-7.2m1.2,8.7a10.3,10.3,0,0,0-8.1-5.5m-3.1,5.6c-.9.5-2.1-.2-2.8-.9a9.34,9.34,0,0,1-1-11.3,9.44,9.44,0,0,1,10.9-3.4,12.889,12.889,0,0,1-3.2,1.9,7.58,7.58,0,0,0-2.7,10.1m5.2,10.1,4.6.4a11.051,11.051,0,0,0-1.5,4.3,13,13,0,0,0,6.5-.2l.2-3.8a15.16,15.16,0,0,0-6-.1" fill="none" stroke="#000" stroke-miterlimit="10" stroke-width="1"/>
        <path id="Path_69127" data-name="Path 69127" d="M119,457.3a4.08,4.08,0,0,0,4.57-3.53q0-.18,0-.37l-1.2,7.4" fill="none" stroke="#000" stroke-miterlimit="10" stroke-width="1"/>
        <path id="Path_69128" data-name="Path 69128" d="M121.3,456.8l1.6,6.5a13.732,13.732,0,0,0-3.5.2m-2.6-.3a9.88,9.88,0,0,0-1.1,4.4l3.7.5c.5,1.5-.8,3.1-2.4,3.4a7.64,7.64,0,0,1-4.6-.9,15.33,15.33,0,0,1-5.9-4.1c-1.5-1.9-2.3-4.6-1.3-6.8m-14.5,7c1.2-1.2,3.7.1,3.4,1.8-1.5-1.5-3.8-3.1-5.6-2a4.47,4.47,0,0,0-1.7,3.3c-.8,5.3,1,10.6,2.7,15.7a12.759,12.759,0,0,0,5.9-2.4" fill="none" stroke="#000" stroke-miterlimit="10" stroke-width="1"/>
        <path id="Path_69129" data-name="Path 69129" d="M94.1,468.4l3.2,13.5m-1.5,1.2c.5,3.4,3.3,6.1,6.5,7.4s6.7,1.5,10.1,1.7m-22.8-4.7a46.269,46.269,0,0,0,3.6,7,7.22,7.22,0,0,0,2.3,2.6,7.87,7.87,0,0,0,3,.8,65.251,65.251,0,0,0,15.3,0m-3.5-6.1,8.7-1.4a4.07,4.07,0,0,1,1.9,0c1.9.5,2.2,3.1,2.1,5m-11.2,3.5,5.8-.9c1-.2,2.3-.2,2.7.8.2.5,0,1.1.2,1.6.4,1.3,2.6,1.1,3.2-.2s.2-2.7-.3-4.1m-13,3.2-.1,3.2,6.9.6a578.706,578.706,0,0,1-.6,58.9c0,.5-.2,1-.6,1.1s-.4-.9-.1-.6" fill="none" stroke="#000" stroke-miterlimit="10" stroke-width="1"/>
        <path id="Path_69130" data-name="Path 69130" d="M121.4,501.3c1.5,19.9.4,39.9-.8,59.8a4.3,4.3,0,0,1-.8,2.7c-1.3,1.4-4.2-.2-3.6-2m-5-92.6a34.71,34.71,0,0,1-14.5,13.9m18.4-11.6a94.08,94.08,0,0,1-12.5,18.3m-9-31.4a26.26,26.26,0,0,1,8.8,18.5m-.2-19.5c-5.9-1-14,1.4-17.5,6.2-2.3,3.2-4,5.7-5,9.6a83,83,0,0,0-1.9,11.1c-1.2,9.8-2.4,19.7-1.1,29.5.7,5,2,10,3.1,14.9,2.1,8.7,3.8,17.5,5.1,26.3m9-54.7c4.6,18.6,5.8,37.8,6.9,56.9a21.059,21.059,0,0,1-.2-2.5" fill="none" stroke="#000" stroke-miterlimit="10" stroke-width="1"/>
        <path id="Path_69131" data-name="Path 69131" d="M89.3,485.4a17.24,17.24,0,0,1-12.2,3.5m15.3,10.5c.9.4.3,1.8-.4,2.5a98.187,98.187,0,0,1-15,12.3m21.5-12.7c5.2,19.9,10.4,40.2,10.2,60.8-.8,1.6-3,2-4.8,1.6s-3.5-1.2-5.3-1.2a35.772,35.772,0,0,0-4.3.8c-4.1.5-8-2.7-12.1-2-.4-2.6-.4-5.8,2-6.9" fill="none" stroke="#000" stroke-miterlimit="10" stroke-width="1"/>
        <path id="Path_69132" data-name="Path 69132" d="M85.6,561.8a28.89,28.89,0,0,0-1.3,7.7c3.1,0,6.1,1.5,9.2,2s7-.5,8-3.5a13.31,13.31,0,0,1-7.6-5.1m14.1-.5c1.6.6,1.8,3,.8,4.3a4.58,4.58,0,0,1-4.6,1.2M121.8,466a22.64,22.64,0,0,1-.3,24.5m1-16.6-5.5,2.8a11.58,11.58,0,0,0-1.3-4.1m1.1,4.6a14.1,14.1,0,0,1-2,14.1" fill="none" stroke="#000" stroke-miterlimit="10" stroke-width="1"/>
        <g id="Group_27278" data-name="Group 27278">
          <path id="Path_69133" data-name="Path 69133" d="M208.6,519.3a12.91,12.91,0,0,0-8.6-3c-1.7,4.1-3.6,6.4,4.8,10.6m8.1-6.6a3.68,3.68,0,0,0-4.2.7,4.43,4.43,0,0,0-1,4.4l4.2.5" fill="none" stroke="#000" stroke-miterlimit="10" stroke-width="0.57"/>
          <path id="Path_69134" data-name="Path 69134" d="M204.9,520l1.7.2c0,.4-.1.9-.1,1.3l-1.7-.2c0-.4.1-.9.1-1.3m2.9-.9a5.39,5.39,0,0,1,5.8.9,6,6,0,0,1,1.4,6m-10.8,1.5-.7,8.5" fill="none" stroke="#000" stroke-miterlimit="10" stroke-width="0.57"/>
          <path id="Path_69135" data-name="Path 69135" d="M203.4,535.6a10,10,0,0,0,2.9,6.2" fill="none" stroke="#000" stroke-miterlimit="10" stroke-width="0.57"/>
          <path id="Path_69136" data-name="Path 69136" d="M209,538.4c.1-.9-1.1-1.3-1.8-.8a3.08,3.08,0,0,0-1,2.3,43.531,43.531,0,0,0-.2,10.2c.2,2.2.2,5.2-1.8,5.8a11.8,11.8,0,0,0-2,.4c-.6.3-1.1,1.3-.5,1.7a3.19,3.19,0,0,0,3,0m6.1-14.7a38.25,38.25,0,0,1-1.2,10.1c-.6,2.4-2.2,5.3-4.5,4.8" fill="none" stroke="#000" stroke-miterlimit="10" stroke-width="0.57"/>
          <path id="Path_69137" data-name="Path 69137" d="M210.6,546.9c.4,1.8,2.4,2.4,4.1,2.7s3.7,1.1,3.9,2.9" fill="none" stroke="#000" stroke-miterlimit="10" stroke-width="0.57"/>
          <path id="Path_69138" data-name="Path 69138" d="M224.6,545.4a3,3,0,0,0-2.4-1.9c-2.3-.3-4.1,2.4-4.3,4.8s.6,4.9.6,7.4a14.77,14.77,0,0,0-.1-2.1,5.759,5.759,0,0,0-2.9-.5,1.9,1.9,0,0,0-1.61,2.15h0c.2,1,1.4,1.5,2.4,1.6a16.88,16.88,0,0,0,6.7-.4,2,2,0,0,0,1.4-.8,3.29,3.29,0,0,0,.4-1.7l.5-8.2m-10.6-20.65c-.8,3,.7,6.1,2.7,8.3s4.6,3.8,6.7,5.8a6.23,6.23,0,0,1,1.4,1.8,6.53,6.53,0,0,1,.5,2,31.65,31.65,0,0,1-.5,9.2" fill="none" stroke="#000" stroke-miterlimit="10" stroke-width="0.57"/>
          <path id="Path_69139" data-name="Path 69139" d="M215.6,550.9c-1.3-.8-3.1,1.1-2.3,2.5l2.1.3m10.4-7.2c1,.9,2.5.4,3.8.8a4,4,0,0,1,2.3,3.1,14,14,0,0,1-.2,4.1l-2-.1a3.85,3.85,0,0,0-.9-4,3.31,3.31,0,0,0-3.9-.3M242.7,500c-3.4-.5-6.7,2.2-8,5.4s-1.1,6.8-.9,10.3m9.3-6.1a21.8,21.8,0,0,0-2.6,7.4,7.81,7.81,0,0,1-5.6-1c-.4-.2-1-.2-1.1.2s.8.6.7.2" fill="none" stroke="#000" stroke-miterlimit="10" stroke-width="0.57"/>
          <path id="Path_69140" data-name="Path 69140" d="M233.4,516.3a14.53,14.53,0,0,0,2.1,12.6,14.9,14.9,0,0,0,11.3,6m-7.2-17.2a11.18,11.18,0,0,0,9.4,11.9,30.715,30.715,0,0,1,5.3.6c1.7.5,3.3,2.2,2.9,3.9a2.91,2.91,0,0,0-2.5.9,5.89,5.89,0,0,1,2.8,3.4,15.25,15.25,0,0,1-14-3.7m2.5-25.2a18.85,18.85,0,0,1-3.6-11.4,5.1,5.1,0,0,1,.5-2.5,6,6,0,0,1,2.3-1.8c4.2-2.1,9.8-4.1,13.3-1,1.7,1.5,2.3,3.8,2.6,6a20,20,0,0,1-4.7,15.2,8.68,8.68,0,0,1-10.5-6m3.6.8h0m5.8,26.4c2.1-.6,4.3.4,6.4.9a15.93,15.93,0,0,0,14.4-3.9,37.5,37.5,0,0,0-18.8-1.2" fill="none" stroke="#000" stroke-miterlimit="10" stroke-width="0.57"/>
          <path id="Path_69141" data-name="Path 69141" d="M256.7,536.9a22.22,22.22,0,0,0,18-1.5m.2-2.6a41.74,41.74,0,0,1-5,18.3m-17-12.2,3.7,13.6a5.3,5.3,0,0,0,.8,1.7,3.589,3.589,0,0,0,1.8.7,15.169,15.169,0,0,0,6.7.2c2.2-.6,4-2.9,3.5-5.1m1.5-12-1.7,13.3" fill="none" stroke="#000" stroke-miterlimit="10" stroke-width="0.57"/>
          <path id="Path_69142" data-name="Path 69142" d="M267.2,537.9a37.72,37.72,0,0,1,.4,10.6m-8.1-44.6a22.77,22.77,0,0,1,8.5,21.3" fill="none" stroke="#000" stroke-miterlimit="10" stroke-width="0.57"/>
          <path id="Path_69143" data-name="Path 69143" d="M264.4,533.2l.3-31.9" fill="none" stroke="#000" stroke-miterlimit="10" stroke-width="0.57"/>
          <path id="Path_69144" data-name="Path 69144" d="M264.2,526.4a42.621,42.621,0,0,1,10.4-13.8m-10.8,13.8a25,25,0,0,0-8.6-6.1" fill="none" stroke="#000" stroke-miterlimit="10" stroke-width="0.57"/>
          <path id="Path_69145" data-name="Path 69145" d="M263.8,511a34.679,34.679,0,0,1,6.9-7.4,11.11,11.11,0,0,1-.1-4.8l3.1.1a4.89,4.89,0,0,1-2.7,5.8m2.6,8.6c-1.2-1.8,1.2-4.6,3.1-3.6a3.67,3.67,0,0,1-3,4.25h-.42M256,521.1a4.74,4.74,0,0,1-3.3.3l.1-3.8a3.72,3.72,0,0,1,4.3,4m7.8-19.7c-.7-1-1.4-2.1-1.2-3.2s1.8-2.1,2.6-1.2a2,2,0,0,1,.4,1.5,20,20,0,0,1-.7,4.9m1,20.5a3.41,3.41,0,0,1,3.3,2.9,10.639,10.639,0,0,1-.4,4.7m-37.1-9.5c.6-4.7-2.2-5-7.1-3.3.4,12.3,5,23.5,11.3,34.1m-5.4-11.4c1.5,2,5.1-.6,7,.9.4.3.7.8,1.1,1.1a4.83,4.83,0,0,0,2.7.4,22.74,22.74,0,0,1,10,1.4M236.2,535a15.17,15.17,0,0,0,.2,6.7" fill="none" stroke="#000" stroke-miterlimit="10" stroke-width="0.57"/>
          <path id="Path_69146" data-name="Path 69146" d="M242.1,536.5a18.13,18.13,0,0,0,.6,7.3m8-3.8,2.5,4.7m-13.7-.5a12.71,12.71,0,0,1,1.5,6.9m-3.2,1.2c-.5-1.2-2.3-.2-3,.9a22.439,22.439,0,0,0-2.5,6,6.59,6.59,0,0,0,9.1-8M318,508.7c7.8,6.6,19.9,13.2,23.5,22.7,1.5,3.9,1.8,9.1-1.7,11.4M326,534.3l-1.2-1.9a4.71,4.71,0,0,1,2.4,4.4,4.24,4.24,0,0,1,2.8-3" fill="none" stroke="#000" stroke-miterlimit="10" stroke-width="0.57"/>
          <path id="Path_69147" data-name="Path 69147" d="M327.2,536.9a75.931,75.931,0,0,0-.8,17.8,7.53,7.53,0,0,0,5.1.6m9.6-13.9-5.6,11.8m6.1-11.1a13.2,13.2,0,0,1-7.7,14.8m5.2-2.9c1.8.8,3.5-1.3,3.8-3.2s-.4-3.9.3-5.7c.5-1.5,1.9-2.6,2.3-4.1s-.8-3.7-2.3-3m-18.8-5.4a29.869,29.869,0,0,0-15.9,12.7c-.6,1-1.2,2.3-.7,3.4.6,1.3,2.2,1.7,3.6,1.9l12.8,1.7m-4.4-6,4.4-2.6-2.6,2.3m-1.5-23a21.73,21.73,0,0,1-8.8,12.4l-3.7-5.5c-.3-.5-.7-1.1-.5-1.7a1.76,1.76,0,0,1,.8-.9c1.3-.9,1.3-7.2,2.6-8.1m.5,15.9A35.61,35.61,0,0,1,297.1,555m8.7-25.3a29.58,29.58,0,0,1-10.5,19.2" fill="none" stroke="#000" stroke-miterlimit="10" stroke-width="0.57"/>
          <path id="Path_69148" data-name="Path 69148" d="M294.3,549.2a4.39,4.39,0,0,0-3.43,5.17v.13m2.03.1a6.94,6.94,0,0,0,.3,4.7m2.7-5.4a5.8,5.8,0,0,0-.3,4.1,4.77,4.77,0,0,0,1.8-3.3m8.1-39.9a25.75,25.75,0,0,0-3,14.1" fill="none" stroke="#000" stroke-miterlimit="10" stroke-width="0.57"/>
          <path id="Path_69149" data-name="Path 69149" d="M301.5,527.4l5.4-.7m-4.8,2.8c-1.7,7.1-9.5,12-9.9,19.3m-39,7.9c2.4,1.9,5.9,1,9,.4a26.909,26.909,0,0,1,9.8-.1,20.859,20.859,0,0,0,3.5.4c2.3,0,4.4-1.1,6.6-1.4,3.3-.4,6.9.7,9.8-.9m7.6-.1c3.7,1.7,8-.4,12-.5a39.071,39.071,0,0,1,4.8.5,56.588,56.588,0,0,0,10.1.3" fill="none" stroke="#000" stroke-miterlimit="10" stroke-width="0.57"/>
          <path id="Path_69150" data-name="Path 69150" d="M311.3,559.5c6.7.8,13.5-.7,20.2-1.2,4.3-.4,8.7-.4,13-.4l35-.2m-94.5,0a20.877,20.877,0,0,0,.5-5.6" fill="none" stroke="#000" stroke-miterlimit="10" stroke-width="0.57"/>
          <path id="Path_69151" data-name="Path 69151" d="M285.9,556.4l-.9-6.8a2.58,2.58,0,0,1-3.3-2.4,9.7,9.7,0,0,1,1.7.1,3.68,3.68,0,0,0,1.3,2.7,3,3,0,0,1,3.9-2.5,3.86,3.86,0,0,1-3.5,2.6" fill="none" stroke="#000" stroke-miterlimit="10" stroke-width="0.57"/>
          <path id="Path_69152" data-name="Path 69152" d="M285.3,550.7l.2-6.9c-1.1.2-2.4.2-3.1-.6s-.1-2.6,1-2.3.9,2,.4,3.1" fill="none" stroke="#000" stroke-miterlimit="10" stroke-width="0.57"/>
          <path id="Path_69153" data-name="Path 69153" d="M285.6,544.7a3,3,0,0,1,0-2.1c.3-.6,1.2-1.1,1.7-.7a2.57,2.57,0,0,1-2.5,2.1M274,558.7v-6.6a.76.76,0,0,1,.8.1,1.25,1.25,0,0,1-.6,1.66h-.1m-.6,1.54a5.39,5.39,0,0,1-.8-2.1c-.2-.7-.6-1.5-1.4-1.6s-1.5.9-.9,1.4a1.51,1.51,0,0,0,1.8-.1" fill="none" stroke="#000" stroke-miterlimit="10" stroke-width="0.57"/>
          <path id="Path_69154" data-name="Path 69154" d="M273.1,555a36.483,36.483,0,0,0,.1-4.7c.1-1.6,1.2-3.3,2.8-3.2a1.57,1.57,0,0,1-2.2,1.8.63.63,0,0,1,.3-.8M306,557a5.66,5.66,0,0,1-.6-3.6c-.5,0-1-.1-1.6-.1a2,2,0,0,1,.1-1.3,1.19,1.19,0,0,1,.5,1.6" fill="none" stroke="#000" stroke-miterlimit="10" stroke-width="0.57"/>
          <path id="Path_69155" data-name="Path 69155" d="M304,553.9a3,3,0,0,1,3.5-1.8,1.91,1.91,0,0,1-2.7,1.4" fill="none" stroke="#000" stroke-miterlimit="10" stroke-width="0.57"/>
          <path id="Path_69156" data-name="Path 69156" d="M304.8,553.9l.1-3.9v.9m48.7,7.3c.8-.1.9-1.1.9-1.8a69.1,69.1,0,0,0-1-10.1m1,5.1c.4-1.4,1.7-2.4,2.7-3.4s2.1-2.3,1.9-3.8a2.22,2.22,0,0,1,1.6-.3,1.87,1.87,0,0,1-2,2.1m-5.2,5.2-4.8-3.2c-.9-.6-1.9-1.8-1.1-2.6a2.68,2.68,0,0,1,.7,2.7m5.7-.1a5.39,5.39,0,0,1,3.7-6,1.39,1.39,0,0,1-1.6,1.7m-3.6,4a5.09,5.09,0,0,0-1.1-4.3,2,2,0,0,0-2-.9,1.09,1.09,0,0,0-.7,1.7c.5,0,1,.1,1.6.1m2.5,4.1.7-8.5a3.08,3.08,0,0,1,.6-1.9c.4-.5,1.4-.6,1.7,0a1.39,1.39,0,0,1,0,.9,1.94,1.94,0,0,1-2.4,1.1m-1.1,1.7a4.92,4.92,0,0,0-.2-2.4,1.63,1.63,0,0,0-1.9-1v1.6a.88.88,0,0,0,1.3-.6" fill="none" stroke="#000" stroke-miterlimit="10" stroke-width="0.57"/>
          <path id="Path_69157" data-name="Path 69157" d="M352.8,540.4a2.76,2.76,0,0,1,.72-3.84l.08-.06a1.66,1.66,0,0,1-.2,1.9m-40.6-19.7a11.67,11.67,0,0,0,3.8-14,6.91,6.91,0,0,0-4.2-4c-2.3-.6-4.7.7-6.3,2.4a9.63,9.63,0,0,0,4.4,15.5,2.08,2.08,0,0,0,2.3.1Z" fill="none" stroke="#000" stroke-miterlimit="10" stroke-width="0.57"/>
          <path id="Path_69158" data-name="Path 69158" d="M307.9,513.8a11.209,11.209,0,0,0,.9,3.6l1.9-2.1m-.8-2.1A4.471,4.471,0,0,0,313,512a2.24,2.24,0,0,1-2.6,1.7m5.7-3a1.84,1.84,0,0,1,1-2.4,4.42,4.42,0,0,1,0,3.2" fill="none" stroke="#000" stroke-miterlimit="10" stroke-width="0.57"/>
        </g>
      </g>
      <path id="Path_69159" data-name="Path 69159" d="M308,510.7c-1.1.6-2.5,1.3-3.5.5a2.55,2.55,0,0,1-.8-1.2,35.19,35.19,0,0,1-1.6-3.9,1,1,0,0,0,1.4-.4,5.911,5.911,0,0,0,.6-1.4,7.29,7.29,0,0,1,3-3.5,22.582,22.582,0,0,1,4.2-1.9,4.29,4.29,0,0,1,2.7-.4,4.19,4.19,0,0,1,2.3,2.4,24.792,24.792,0,0,1,1.7,4.8,3.41,3.41,0,0,1-.2,2.8c-1-.8-1.9.2-2.6.8,0-.2-.3-.7-.3-1a21,21,0,0,0-6.9,2.4Z"/>
      <g id="Group_27281" data-name="Group 27281">
        <path id="Path_69160" data-name="Path 69160" d="M307.5,514.9a2.57,2.57,0,0,1-1.5-.1" fill="none" stroke="#000" stroke-miterlimit="10" stroke-width="1"/>
        <g id="Group_27280" data-name="Group 27280">
          <path id="Path_69161" data-name="Path 69161" d="M309.8,513.1a4.36,4.36,0,0,1,1.7-1.6m-3.9,3c-.3-.2-.6-.5-.9-.7-.1,0-.3.1-.4.1m3.5,4.2a2.25,2.25,0,0,0,2-.9" fill="none" stroke="#000" stroke-miterlimit="10" stroke-width="0.57"/>
        </g>
      </g>
      <path id="Path_69162" data-name="Path 69162" d="M246.4,505.9c.2,0,.3.2.4.3a1.17,1.17,0,0,0,1,0l12.6-3.5c.2-.1.4-.1.5-.3a.75.75,0,0,0,.1-.5,12.58,12.58,0,0,0-1.3-6.9,8.32,8.32,0,0,0-5.4-4.3c-3.2-.7-6.5.9-9.4,2.4a9.139,9.139,0,0,0-2.4,1.6,5.54,5.54,0,0,0-1.3,4,15.79,15.79,0,0,0,.9,4.2l1.3,4.4c1.5,4.3,2.7-1.4,3-1.4Z"/>
      <path id="Path_69163" data-name="Path 69163" d="M247.5,491.9a2.1,2.1,0,0,1-.7-3.1,3,3,0,0,1,1.3-.9c1.3-.6,3.2-.7,4,.5a2.46,2.46,0,0,1-.9,3.3,4,4,0,0,1-3.7.1v-.5"/>
      <g id="Group_27282" data-name="Group 27282">
        <path id="Path_69164" data-name="Path 69164" d="M255.7,507a3.76,3.76,0,0,1,2.1-1.4m-6.2,2.7a2.11,2.11,0,0,0-2.4-.1m3.5,2.2a2.62,2.62,0,0,0,1.5.2,1.17,1.17,0,0,0,1-1m-2.3,2.4a3,3,0,0,0,3.1-.7m-6.6-2.2a3.52,3.52,0,0,0,2-.3c.1.5-.8.8-1.1.4m5.9-1.8a2.16,2.16,0,0,0,1.7-.5" fill="none" stroke="#000" stroke-miterlimit="10" stroke-width="0.57"/>
        <path id="Path_69165" data-name="Path 69165" d="M256.9,507.6c0,.4.6.5.8.2a1.18,1.18,0,0,0,.1-1m62.9,4.4a16.35,16.35,0,0,1-3.3,4.5m.6,14.6a17.87,17.87,0,0,0,15,.2" fill="none" stroke="#000" stroke-miterlimit="10" stroke-width="0.57"/>
      </g>
      <path id="Path_69166" data-name="Path 69166" d="M207.5,530.4c.1.6-.1,1.3.2,1.9a1.28,1.28,0,0,0,1.76.42h0a1.78,1.78,0,0,0,.7-1.8.91.91,0,0,0-.3-.7,1.47,1.47,0,0,0-1.4-.5,1.41,1.41,0,0,0-1.1,1m7.24,5.48a.93.93,0,0,0-.32,1.28h0a1.3,1.3,0,0,0,1.3.5c.1,0,.2-.1.3-.1s.1-.2.2-.3a1.63,1.63,0,0,0-.1-1.2.79.79,0,0,0-1.1-.1m-6.98,6.82a.71.71,0,0,0,.3,1.1,1,1,0,0,0,1.2-.5,1.23,1.23,0,0,0-.1-1.3c-.1-.1-.1-.2-.2-.2-.3-.2-.7.1-.9.4a7.259,7.259,0,0,1-.5.9m13.7,3.3c-.1-.1-.4,0-.5.1s-.1.3-.2.5v1.1c.1.6.3,1.3.9,1.4a1.22,1.22,0,0,0,1.2-.6,1.9,1.9,0,0,0,.2-1.9,1.4,1.4,0,0,0-1.8-.4m-6-2.4a1.43,1.43,0,0,0-.5,1.1c0,.1,0,.2.1.2a.35.35,0,0,0,.2.1,1.19,1.19,0,0,0,1.3-.4.94.94,0,0,0-.2-1.1.91.91,0,0,0-1.1.1m-3.8-22.8a.93.93,0,0,0-.5,1.2,1.23,1.23,0,0,0,1.1.7,1,1,0,0,0,1-.6c.1-.5-.6-.8-1.1-1-.1,0-.3,0-.3.1"/>
      <g id="Group_27289" data-name="Group 27289">
        <g id="Group_27283" data-name="Group 27283">
          <path id="Path_69167" data-name="Path 69167" d="M14.8,487.6V511m30.1-23.8v23.5" fill="none" stroke="#000" stroke-miterlimit="10" stroke-width="0.46"/>
          <path id="Path_69168" data-name="Path 69168" d="M11.5,488.9a5.66,5.66,0,0,1,2.9-.2H48.1m-35.9-5.6a20.9,20.9,0,0,1,2.5-.1H47.4M27.5,505.3v6.4h4.7v-6.5h-5m-12.5-8.1H43.8" fill="none" stroke="#000" stroke-miterlimit="10" stroke-width="0.46"/>
          <path id="Path_69169" data-name="Path 69169" d="M11.2,483.7h.4v29.4M47.7,484v29.5M12,483a3.57,3.57,0,0,1,4.1-1.1,4.51,4.51,0,0,0,1.1.3c.3,0,.6-.3.8-.4a4.07,4.07,0,0,1,5.4,1,6.17,6.17,0,0,1,7.1-.3,5.21,5.21,0,0,1,7-.2,5.85,5.85,0,0,1,2.4-1.4,2.23,2.23,0,0,1,2.4,1,2.61,2.61,0,0,1,4.1.7" fill="none" stroke="#000" stroke-miterlimit="10" stroke-width="0.46"/>
          <path id="Path_69170" data-name="Path 69170" d="M19.7,477l-6.4,5m28.1-5.2,4.4,4.2" fill="none" stroke="#000" stroke-miterlimit="10" stroke-width="0.46"/>
          <path id="Path_69171" data-name="Path 69171" d="M19.3,477.3a4.83,4.83,0,0,1,2.4.2,1.19,1.19,0,0,1,1.35-1h.05a3.92,3.92,0,0,1,1.6,1,7.18,7.18,0,0,1,5.9-.5c.5-.7,1.4-.6,2.2-.6l3.5.4a12,12,0,0,1,5,.1m-25.9,3.5a2.27,2.27,0,0,1,2.8.2,6.06,6.06,0,0,1,6.1-.3,2.119,2.119,0,0,0,.7.3,1.69,1.69,0,0,0,1-.3,5.22,5.22,0,0,1,4.4.3c.1-.9,1.2-1.2,2.1-1.1a7.721,7.721,0,0,0,2.6.3c.7-.2,1.3-.7,2-.5.4.1.6.4.9.6,1.7.9,4.2-1.1,5.6.2m-24.3-2.2a59.927,59.927,0,0,0,9.5.4,34.189,34.189,0,0,0,4.5-.4c1.4-.3,3.4-.4,3.8,1a7.07,7.07,0,0,1,6-.6M12.9,511.7H24.2m13.9-1.1h8.5m-23,3.6H36.4m-14.2,3.2H37.8m-18.5,3.5,2.1-.4H41.7" fill="none" stroke="#000" stroke-miterlimit="10" stroke-width="0.46"/>
          <path id="Path_69172" data-name="Path 69172" d="M20,507.1l-4.6,4.6m4.3-12.1V506m.7,2.1h5.7m6.7,0h7.8" fill="none" stroke="#000" stroke-miterlimit="10" stroke-width="0.46"/>
          <path id="Path_69173" data-name="Path 69173" d="M40.3,508l4.5,2.3m-4.2-2.5H41V497.5m-16.4,1.8v8.9m10.3-9.3v9M30.7,523c-.8,2.9,4.9,2.9,5.8,7.9.5,2.7-3.4,4.1-5.7,5.6s-4.6,4.2-3.5,6.6c.9,1.9,3.2,2.5,5.3,2.6,8.4.3,16.5-4.4,24.8-3.3,6,.8,12.2,4.5,17.7,2.1m46.4,7c4.2.1,3.1-1.1,7.6-.3a26.943,26.943,0,0,0,5.7.7c3,.1,6-.8,8.9-.1m6.7-.2a47.378,47.378,0,0,1,8.4-.5m16.9-.2,12,.7c5,.3,10,.5,14.8-.8m41,.4a40.23,40.23,0,0,1,12,.1m87.4-2.7a42,42,0,0,1,10.6-1.1M30.4,522.8c-1.7,2.7,5,5.1,3.6,7.9-.3.7-1,1-1.7,1.4a40.119,40.119,0,0,0-10.7,8.6c-1.4,1.6-2.8,3.5-3,5.6-.4,4.1,3.4,7.5,7.3,9,14.9,6,32.8-3.1,47.4,3.5M76,569.7a41.19,41.19,0,0,0,10.3,2.7c13.6,1.8,27.3-3,41-2m-5.8-8.5,9.2.4,11.1.3c5.4.1,10.8-.1,16.1-.5m8,6.4c5.6.7,11.2-.5,16.7-1.3a141.626,141.626,0,0,1,31.2-1.3m47.4-.1a502.23,502.23,0,0,0,68.3.5c11.7-.7,23.6-1.8,35,.7M65,526.7c4.6-.5,9.3,1.4,13.7,0m-31.3,1.6c2.9-.1,6.3-1.3,9.2-1.6M18.3,516.5a110.626,110.626,0,0,0-14.1.3M42.8,408.3a4.75,4.75,0,0,1,9.2-1.2,9.659,9.659,0,0,1,3.8-.3,3.69,3.69,0,0,1,2.9,2.2c.2.5.2,1.1.4,1.6.3,1,1.3,1.8,1.1,2.9s-1.5,1.5-2.6,1.5-2.3-.2-3.1.4a8.3,8.3,0,0,0-1.5,1.7,7.48,7.48,0,0,1-2.9,1.6c-1.6.5-3.3,1-4.9.4a3.39,3.39,0,0,1-2.1-3.9c-2.6.1-4.4-.6-5.3-3-2.3-5.9,4.9-3.5,5-3.9Zm46.4,7.6a1.54,1.54,0,0,1-.3-1.7,3.1,3.1,0,0,1,3.3.6c1.2-1.3,2.6-2.7,4.4-2.9s3.7,1.6,2.9,3.2a5,5,0,0,1,2.7-.7c.9.1,1.9.9,1.7,1.8s-1.3,1.4-2.2,1.6a4.41,4.41,0,0,0-2.8.8A6.7,6.7,0,0,0,98,420a4.47,4.47,0,0,1-4,2.4,3,3,0,0,1-2.72-3.22V419a4.92,4.92,0,0,1-2.7-.2,1.6,1.6,0,0,1-.68-2.16l.08-.14c.4-.1.8-.1,1.2-.2" fill="none" stroke="#000" stroke-miterlimit="10" stroke-width="0.46"/>
        </g>
        <path id="Path_69174" data-name="Path 69174" d="M12.3,415.2c-1.9.4-3.7-2-2.8-3.6l3.5-.8a4.27,4.27,0,0,1,3-4.6,4.38,4.38,0,0,1,5,2.4,1.62,1.62,0,0,0,.5.9c.5.4,1.2,0,1.9-.1a2.39,2.39,0,0,1,2.7,2.7,2.44,2.44,0,0,1-3.6,1.5,3.89,3.89,0,0,1-2.1,2.9,9.111,9.111,0,0,1-3.6.9,5.41,5.41,0,0,1-2.8-.3,2.08,2.08,0,0,1-1.2-2.3" fill="none" stroke="#000" stroke-miterlimit="10" stroke-width="0.38"/>
        <g id="Group_27284" data-name="Group 27284">
          <path id="Path_69175" data-name="Path 69175" d="M137.1,422.8c-1.2.3-2.8.3-3.1-.9-.2-.7.5-1.5,1.2-1.7a4.54,4.54,0,0,1,2.3.1,3.89,3.89,0,0,1,3-3.9c1.8-.3,3.7,1.3,3.4,3a5.19,5.19,0,0,1,4.2-.4c1.3.6,2.1,2.4,1.2,3.6a6.72,6.72,0,0,1-6.6,1.7c-.7-.2-1.6-.6-2.3-.2-.4.2-.6.5-1,.7a1.58,1.58,0,0,1-2.1-1.9m-15.7-.2a1.432,1.432,0,0,1,2.8-.6,4.62,4.62,0,0,1,3.2-.9,2,2,0,0,1-.5,2.6,5.12,5.12,0,0,1-2.7.9,3,3,0,0,1-2.3-.3c-.7-.5-.7-1.7.1-1.9" fill="none" stroke="#000" stroke-miterlimit="10" stroke-width="0.46"/>
        </g>
        <g id="Group_27285" data-name="Group 27285">
          <path id="Path_69176" data-name="Path 69176" d="M170.4,426.6a5.2,5.2,0,0,1,4,.7,4.42,4.42,0,0,1,.4-2.5m-7.6-2.7a4.53,4.53,0,0,1,2.3.2,1.72,1.72,0,0,1,.8-1.6m3.2-.4a2.25,2.25,0,0,1,1.8.2,2.33,2.33,0,0,1,.4-2m-8-1.1,2.2-.3a2.09,2.09,0,0,1,.4-1.7m-10.1.1,1.7-.6a2.32,2.32,0,0,1,.4-1.8m-11-.3a5.7,5.7,0,0,0,1.3-.1,3.37,3.37,0,0,1,.5-1.7m-9.4,2.1a2.83,2.83,0,0,1,1.8-.4,2.78,2.78,0,0,1,.3-1.8m13,25.8a6.48,6.48,0,0,1,4.9-.6,3.55,3.55,0,0,1,2.2-4.4" fill="none" stroke="#000" stroke-miterlimit="10" stroke-width="0.38"/>
        </g>
        <g id="Group_27286" data-name="Group 27286">
          <path id="Path_69177" data-name="Path 69177" d="M20.6,490.9v4.5" fill="none" stroke="#000" stroke-miterlimit="10" stroke-width="0.46"/>
          <path id="Path_69178" data-name="Path 69178" d="M20.6,491.2v-.3l4.6,4.6" fill="none" stroke="#000" stroke-miterlimit="10" stroke-width="0.46"/>
          <path id="Path_69179" data-name="Path 69179" d="M24.6,490.6v5.2m5.2-5c-.9-.7-2.3,0-2.7,1.1a4.69,4.69,0,0,0,.3,3.3,2.12,2.12,0,0,0,2.6.3,2.23,2.23,0,0,0,.9-2.5H28.5m5.3-2.3a3.61,3.61,0,0,0-1.3,4.1,4,4,0,0,0,3.6.8,2.4,2.4,0,0,0,1.6-3h0a2.63,2.63,0,0,0-2.1-1.4,8.309,8.309,0,0,0-2.7.3" fill="none" stroke="#000" stroke-miterlimit="10" stroke-width="0.46"/>
        </g>
        <g id="Group_27287" data-name="Group 27287">
          <path id="Path_69180" data-name="Path 69180" d="M58.1,491.4a21.4,21.4,0,0,0-5.9,8.6m.4-.8c.8,0,2.2-.2,3-.1a6,6,0,0,0,2.9,3.5" fill="none" stroke="#000" stroke-miterlimit="10" stroke-width="0.4"/>
          <path id="Path_69181" data-name="Path 69181" d="M52.8,499.1c-1.3.8-1.2,2.9-.1,4a6.36,6.36,0,0,0,4.2,1.5m.9-1.5a4.39,4.39,0,0,1,1.8-1.2,1.83,1.83,0,0,1,2,.5,3.581,3.581,0,0,1,.4,1.1c.2,1.3.1,3.2-1.2,3.3M59.1,505c-3.6,6-14.1,25.9-18.5,31.4m19.9-31.1c-3.8,6.2-14.4,26.3-19,31.9" fill="none" stroke="#000" stroke-miterlimit="10" stroke-width="0.4"/>
          <path id="Path_69182" data-name="Path 69182" d="M64.1,499l-2.2,3.8m3.9-9,2.6-4.4,2.5-4.2,2.5-4.3,1,.7-7.8,13.1m-5.5,7.2,2.2-3.7M40.4,536.7a48.259,48.259,0,0,1-12.6.5m13.4-.6a13.53,13.53,0,0,1-4.6,1.7,18.211,18.211,0,0,1-3.3.1l-3.9-.1m12-1.4a8.39,8.39,0,0,1-5.2,2.6,23.231,23.231,0,0,1-5.9-.1m11.8-2.8a7.61,7.61,0,0,1-5.5,4,13.479,13.479,0,0,1-4.9-.2" fill="none" stroke="#000" stroke-miterlimit="10" stroke-width="0.4"/>
          <path id="Path_69183" data-name="Path 69183" d="M42.1,536.6a4.54,4.54,0,0,1-2.9,4.4,4.48,4.48,0,0,1-2,.4,13.752,13.752,0,0,1-4.5-.4m8.1-4.7c-3.9,0-7.9,0-11.8-.2m31.8-31.8a5.13,5.13,0,0,1-.7,2.4m-3.8-2.2a1.53,1.53,0,0,0,1.87,1.08l.23-.08M58,491.4a20.7,20.7,0,0,1,5-1.5m-5.3,1.7,5.2.3" fill="none" stroke="#000" stroke-miterlimit="10" stroke-width="0.4"/>
          <path id="Path_69184" data-name="Path 69184" d="M63.2,487.7a13.43,13.43,0,0,0-.3,3.5,3.89,3.89,0,0,0,.2,1.5,1.64,1.64,0,0,0,1,1c.4.1.7-.1,1.1-.3a5.671,5.671,0,0,0,1.3-.8M63,488.2a4.66,4.66,0,0,1-.6-2,2.05,2.05,0,0,1,.8-1.8,2.66,2.66,0,0,1,1.2-.3,28.048,28.048,0,0,1,4.1,0,3.84,3.84,0,0,1,2.3,1.1m-7.5,2.5a5.23,5.23,0,0,0,4.6,2" fill="none" stroke="#000" stroke-miterlimit="10" stroke-width="0.4"/>
          <path id="Path_69185" data-name="Path 69185" d="M63.1,487.7l6,.2M64,489.5l1.4.9m1.2.2a2.541,2.541,0,0,0,1.2-.2m-1.2.3c-.3-.1-.5.3-.5.6s-.5.6-.6.4m-1.7.2a6,6,0,0,0,1.9.6m-1.3,6.7a9.132,9.132,0,0,0-.8-1.3c-.1-.1-.1-.2-.2-.2a.4.4,0,0,0-.4.2.75.75,0,0,0-.1.5m-.1-.3a.92.92,0,0,1,.2-1c.2-.1.4-.1.5-.2a2.389,2.389,0,0,0,.3-.7c.1-.3.1-.5.4-.6h.3c.2-.1.2-.4.2-.6s-.1-.5.1-.6a1.087,1.087,0,0,1,.5-.1,2.544,2.544,0,0,1,.7.2.761.761,0,0,1,.4.2c.1.1.1.2.2.3a2.54,2.54,0,0,1,.2,1.2v3m-2.6,0a.1.1,0,0,1,.1-.1" fill="none" stroke="#000" stroke-miterlimit="10" stroke-width="0.4"/>
          <path id="Path_69186" data-name="Path 69186" d="M64.2,499a4.05,4.05,0,0,1,.5.9c.1.1.2.3.3.3a.6.6,0,0,1,.4.1m1.2-1.6a24.459,24.459,0,0,0,3.1,3.4,6,6,0,0,1,.8.8,2.33,2.33,0,0,1-.7,2.8,1.14,1.14,0,0,1-.8.3,1.38,1.38,0,0,1-.9-.5l-1.1-.9a1.78,1.78,0,0,1-.7-.8,3.18,3.18,0,0,1-.3-.9l-.4-2.5m-2.9-8.2a16.06,16.06,0,0,1,0,3.1,5.241,5.241,0,0,0,1.1-1" fill="none" stroke="#000" stroke-miterlimit="10" stroke-width="0.4"/>
          <path id="Path_69187" data-name="Path 69187" d="M63.6,494.4c.2.2.5.4.7.6m4.4-3.5c.1,0,.2,0,.2.1a4.6,4.6,0,0,1,1,1.8,6.15,6.15,0,0,1,.1,1.4l.2,7.8M55.7,499a2.3,2.3,0,0,0-1.6-1.7m1.6,2,1.5-1.9m11.2,3.4a3.329,3.329,0,0,1,1.4.1m-2-.6a5.841,5.841,0,0,1,1.8-.4c.2,0,.6.1.5.3M67,504.9l-.1,4.4-8.7.5m-2-4.7a12.09,12.09,0,0,0,.6,3.8" fill="none" stroke="#000" stroke-miterlimit="10" stroke-width="0.4"/>
          <path id="Path_69188" data-name="Path 69188" d="M58.6,508.5a39.375,39.375,0,0,1,7.7-.4m-4.2.3c.2-.2.6,0,.7.3a1.06,1.06,0,0,1-.1.8m-.1-1.3a1.24,1.24,0,0,1,.4,1.5" fill="none" stroke="#000" stroke-miterlimit="10" stroke-width="0.4"/>
          <path id="Path_69189" data-name="Path 69189" d="M62,509c.4,0,.8-.1,1.3-.1m3.7.5c-.9,9.4-2,18.8-3.5,28.1m-6.8-25.7c-.1,8.8.1,16.8.6,25.5m6.5-26.4L60.1,536c-.1,1.1-.5,2.5-1.6,2.8L57,537" fill="none" stroke="#000" stroke-miterlimit="10" stroke-width="0.4"/>
          <path id="Path_69190" data-name="Path 69190" d="M63.4,537.5a1.79,1.79,0,0,1-1.8.5,1.89,1.89,0,0,1-1.4-1.2m-2.8,1.4a3.35,3.35,0,0,0,.7,4c.1.1.2.2.3.2a.52.52,0,0,0,.4-.2c.2-.1.5-.1.7-.2a1.039,1.039,0,0,0,.4-.8,5.38,5.38,0,0,0-.5-3.1m4.1-.8c.4.1.7.1,1.1.2a3.548,3.548,0,0,1,1.1.3c.3.2.6.6.5.9a1.21,1.21,0,0,1-1.2.8,4.88,4.88,0,0,1-2.4,0,1.1,1.1,0,0,0-.8,0c-.1.1-.2.1-.4.2a1.42,1.42,0,0,1-1.1.1m4.1-49.5c.2.1.4.1.6.3m-.4-.2h0a.31.31,0,0,0,.2.1m2.1.3c.2,0,.3,0,.4.1m-.3.1h.2m-40,49.8-.3-1.2a5.46,5.46,0,0,1,1.8.1c0,.5-.1,1-.1,1.4a2.32,2.32,0,0,1-1.6-.3m-1-2a2.3,2.3,0,0,1,.4-1.4,1.54,1.54,0,0,0,.5,1.3,2.35,2.35,0,0,1-.8.2c-.1,0-.1-.2,0-.2m4.4,3.6a2.92,2.92,0,0,0-.2-.9h1.2a4.06,4.06,0,0,1-1,.9c-.3,0-.2.5,0,.4s.3-.4,0-.4m1.8.6c.1.2.4.2.6.1a.48.48,0,0,0,.2-.6c-.2-.2-.6,0-.7.3m2.1-.3c.4.3,1,.7,1.5.4s.6-.8,1-1l-2.3.1c-.3,0-.7.2-.5.5q.3.15.3,0m-8.8-.5-.5-.5c-.1-.1-.2-.2-.2-.3a.43.43,0,0,1,.4-.4,1.27,1.27,0,0,1,.6.1,1.42,1.42,0,0,1,.2.6.71.71,0,0,1-.3.6m-1.6-3.1a1.13,1.13,0,0,1-.3-1.1.72.72,0,0,1,1,.08l.08.12a.84.84,0,0,1-.4,1.1m3.02-3.6.3-1.3c.1-.3.2-.7.5-.7a.752.752,0,0,1,.7.5,3.18,3.18,0,0,0,.3.9l-1.7.8m11.9,7.4a1.74,1.74,0,0,1,.5-1.5c0,.3.4.4.7.5s.6.4.4.7c-.1.1-.2.2-.3.2a8.8,8.8,0,0,1-1.5.5h-.2c-.3-.1,0-.6-.2-.7m-2.3,1c.2-.4-.2-1,.2-1.2.1-.1.2-.1.4-.1a3.159,3.159,0,0,0,1.9-.7,3.45,3.45,0,0,1-2,2.1c-.1,0-.2.1-.3,0a.37.37,0,0,1-.1-.3" fill="none" stroke="#000" stroke-miterlimit="10" stroke-width="0.4"/>
        </g>
        <g id="Group_27288" data-name="Group 27288">
          <path id="Path_69191" data-name="Path 69191" d="M20.5,529a2,2,0,0,1,.8.1.92.92,0,0,1,.4.6c.5,1,.4,2.5-.5,3a2.54,2.54,0,0,1-1.5.3l-11.1.6a6.56,6.56,0,0,1-2-.1c-4.2-1.2.8-4.2,2.8-4.3,3.6-.2,7.4-.2,11.1-.2Z" fill="none" stroke="#000" stroke-miterlimit="10" stroke-width="0.46"/>
          <path id="Path_69192" data-name="Path 69192" d="M5.9,532a108.9,108.9,0,0,0,15.1-.5m-.3,1.8-1.1,3.6-2.5,9.3M6.1,534l2.1,12.2a.76.76,0,0,0,.2.5.6.6,0,0,0,.4.1l4.4-.2H14a4.1,4.1,0,0,0,1.1-.1,6,6,0,0,0,1.9-.6" fill="none" stroke="#000" stroke-miterlimit="10" stroke-width="0.46"/>
          <path id="Path_69193" data-name="Path 69193" d="M9.5,534.5a95.145,95.145,0,0,1,.8,11.9c0,.2,0,.4.2.4s.1-.3,0-.2m2-11.7c.1,3.5,0,6.9-.2,10.4v-.6m3.7-10-1.2,11M9,531.4a3.75,3.75,0,0,1-.1-1.1,3.548,3.548,0,0,0,1-.2,9.36,9.36,0,0,1-.4,1.6c-.1,0-.2-.1-.3-.1m2.4-.4a1.05,1.05,0,0,1,.9-.9h.2c.3.1.2.5.1.7a1.39,1.39,0,0,1-1.2.7m2.8-.4a.31.31,0,0,1-.2.1v-1.1a2,2,0,0,0,1.3.1h.2c.1,0,.1.1.2.2.2.3.7.3,1.1.2a1.4,1.4,0,0,1,1.1,0l.2.2c.2.1.4-.1.6-.1a1,1,0,0,1,.9.3.92.92,0,0,0,1,.1" fill="none" stroke="#000" stroke-miterlimit="10" stroke-width="0.46"/>
          <path id="Path_69194" data-name="Path 69194" d="M16.6,530.2a1.16,1.16,0,0,1,1.4-.6,2.13,2.13,0,0,1,1.2,1.1m1.1.3c.1-.3.1-.7.2-1v-.3c-.1-.2-.4-.1-.6,0s-.4.3-.6.3a2.77,2.77,0,0,1-.1.9m-6.4,0a1.61,1.61,0,0,1,1.1.5m-.8-1.2c0-.4.6-.6.9-.4.1.1.2.1.2.2.2,0,.3-.1.4-.1a1.49,1.49,0,0,1,.7-.3.54.54,0,0,1,.5.5m-4.5.8a.66.66,0,0,0-.4-.5c-.2-.1-.4.1-.5.3s.1.4,0,.5-.2,0-.3,0a1.27,1.27,0,0,0-.9.4m-.8-.8a5.162,5.162,0,0,0-1.1-.2c-.1,0-.2,0-.2.1a.37.37,0,0,0-.1.3v.6" fill="none" stroke="#000" stroke-miterlimit="10" stroke-width="0.46"/>
        </g>
        <path id="Path_69195" data-name="Path 69195" d="M169.8,474.2a24.9,24.9,0,0,0-5.9,2.9c-.2.1-.5.3-.5.6s.5.4.5.2m6.4-1.4a15.549,15.549,0,0,0-6.2,2.3m20-7.1a19.771,19.771,0,0,1,6.2-1.7m-5.4,3a10.53,10.53,0,0,1,6.3-1.2m-5.8,3.8a3.28,3.28,0,0,1,3.1,2.5,10.39,10.39,0,0,1-.1,4.3" fill="none" stroke="#000" stroke-miterlimit="10" stroke-width="1"/>
        <path id="Path_69196" data-name="Path 69196" d="M4.3,546.9a8.639,8.639,0,0,0,4.2.4,11.684,11.684,0,0,0,2-.6c2.1-.5,5.7.2,7.9-.1" fill="none" stroke="#000" stroke-miterlimit="10" stroke-width="0.46"/>
      </g>
    </g>
    <g id="Group_27291" data-name="Group 27291" style="isolation: isolate">
      <text id="_0" data-name="0" transform="translate(36.67 90.64) rotate(0.92)" fill="#3187be" font-size="27.52" font-family="ArialMT, Arial"><tspan x="0" y="0">0</tspan></text>
    </g>
    <g id="Group_27292" data-name="Group 27292" style="isolation: isolate">
      <text id="_1" data-name="1" transform="translate(49.27 90.83) rotate(0.92)" fill="#3187be" font-size="27.52" font-family="ArialMT, Arial"><tspan x="0" y="0">1</tspan></text>
    </g>
    <g id="Group_27293" data-name="Group 27293" style="isolation: isolate">
      <text id="STEP" transform="translate(36.2 69.58)" fill="#3187be" font-size="11" font-family="ArialMT, Arial" letter-spacing="-0.02em"><tspan x="0" y="0">STE</tspan><tspan y="0">P</tspan></text>
    </g>
    <g id="Group_27294" data-name="Group 27294" style="isolation: isolate">
      <text id="_0-2" data-name="0" transform="translate(94.34 169.72) rotate(0.92)" fill="#3187be" font-size="27.52" font-family="ArialMT, Arial"><tspan x="0" y="0">0</tspan></text>
    </g>
    <g id="Group_27295" data-name="Group 27295" style="isolation: isolate">
      <text id="_2" data-name="2" transform="translate(106.94 169.91) rotate(0.92)" fill="#3187be" font-size="27.52" font-family="ArialMT, Arial"><tspan x="0" y="0">2</tspan></text>
    </g>
    <g id="Group_27296" data-name="Group 27296" style="isolation: isolate">
      <text id="STEP-2" data-name="STEP" transform="translate(93.87 148.66)" fill="#3187be" font-size="11" font-family="ArialMT, Arial" letter-spacing="-0.02em"><tspan x="0" y="0">STE</tspan><tspan y="0">P</tspan></text>
    </g>
    <g id="Group_27297" data-name="Group 27297" style="isolation: isolate">
      <text id="_0-3" data-name="0" transform="translate(59.5 277.2) rotate(0.92)" fill="#3187be" font-size="27.52" font-family="ArialMT, Arial"><tspan x="0" y="0">0</tspan></text>
    </g>
    <g id="Group_27298" data-name="Group 27298" style="isolation: isolate">
      <text id="_3" data-name="3" transform="translate(72.1 277.4) rotate(0.92)" fill="#3187be" font-size="27.52" font-family="ArialMT, Arial"><tspan x="0" y="0">3</tspan></text>
    </g>
    <g id="Group_27299" data-name="Group 27299" style="isolation: isolate">
      <text id="STEP-3" data-name="STEP" transform="translate(59.03 256.15)" fill="#3187be" font-size="11" font-family="ArialMT, Arial" letter-spacing="-0.02em"><tspan x="0" y="0">STE</tspan><tspan y="0">P</tspan></text>
    </g>
    <g id="Group_27300" data-name="Group 27300" style="isolation: isolate">
      <text id="_0-4" data-name="0" transform="translate(119.35 372.18) rotate(0.92)" fill="#3187be" font-size="27.52" font-family="ArialMT, Arial"><tspan x="0" y="0">0</tspan></text>
    </g>
    <g id="Group_27301" data-name="Group 27301" style="isolation: isolate">
      <text id="_4" data-name="4" transform="translate(131.95 372.37) rotate(0.92)" fill="#3187be" font-size="27.52" font-family="ArialMT, Arial"><tspan x="0" y="0">4</tspan></text>
    </g>
    <g id="Group_27302" data-name="Group 27302" style="isolation: isolate">
      <text id="STEP-4" data-name="STEP" transform="translate(118.87 351.13)" fill="#3187be" font-size="11" font-family="ArialMT, Arial" letter-spacing="-0.02em"><tspan x="0" y="0">STE</tspan><tspan y="0">P</tspan></text>
    </g>
    <path id="Path_69198" data-name="Path 69198" d="M95.4,75.6H213.3" fill="none" stroke="#000" stroke-miterlimit="10" stroke-width="0.26"/>
    <g id="Group_27303" data-name="Group 27303" style="isolation: isolate">
      <text id="REGISTER" transform="translate(95.41 70.05)" font-size="11" font-family="Arial-BoldMT, Arial" font-weight="700"><tspan x="0" y="0">REGISTER</tspan></text>
    </g>
    <g id="Group_27304" data-name="Group 27304" style="isolation: isolate">
      <text id="Register_your_NGO" data-name="Register your NGO" transform="translate(95.41 88.05)" font-size="11" font-family="ArialMT, Arial"><tspan x="0" y="0">Register your NGO</tspan></text>
    </g>
    <g id="Group_27307" data-name="Group 27307">
      <g id="Group_27305" data-name="Group 27305">
        <path id="Path_69199" data-name="Path 69199" d="M239.7,77.2h17.6m-28.7,0h-3.8V61.6" fill="none" stroke="#3187be" stroke-linecap="round" stroke-linejoin="round" stroke-width="2.45"/>
        <path id="Path_69200" data-name="Path 69200" d="M253.1,77.2V61.6" fill="none" stroke="#3187be" stroke-linecap="round" stroke-linejoin="round" stroke-width="2.45"/>
      </g>
      <path id="Path_69201" data-name="Path 69201" d="M216.3,72.3l9.5,12.5,22-21.7" fill="none" stroke="#2dd700" stroke-linecap="round" stroke-linejoin="round" stroke-width="2.45"/>
      <g id="Group_27306" data-name="Group 27306">
        <path id="Path_69202" data-name="Path 69202" d="M242.6,74.2l6.1-6.2" fill="none" stroke="#3187be" stroke-linecap="round" stroke-linejoin="round" stroke-width="2.45"/>
        <path id="Path_69203" data-name="Path 69203" d="M251.5,58H226.6a7.13,7.13,0,0,1-7.1-7.1h0a7.13,7.13,0,0,1,7.1-7.1h24.9a7.13,7.13,0,0,1,7.1,7.1h0A7.13,7.13,0,0,1,251.5,58Z" fill="none" stroke="#3187be" stroke-linejoin="round" stroke-width="2.45"/>
      </g>
    </g>
    <g id="Group_27308" data-name="Group 27308" style="isolation: isolate">
      <text id="NGO" transform="translate(229.17 54.45)" fill="#3187be" font-size="8.95" font-family="ArialRoundedMTBold, Arial Rounded MT Bold"><tspan x="0" y="0">NGO</tspan></text>
    </g>
    <path id="Path_69204" data-name="Path 69204" d="M151.8,154h121" fill="none" stroke="#000" stroke-miterlimit="10" stroke-width="0.26"/>
    <g id="Group_27309" data-name="Group 27309" style="isolation: isolate">
      <text id="POST_A_PROJECT" data-name="POST A PROJECT" transform="translate(151.8 148.66)" font-size="11" font-family="Arial-BoldMT, Arial" font-weight="700"><tspan x="0" y="0">POST</tspan><tspan y="0" xml:space="preserve" letter-spacing="-0.04em"> A</tspan><tspan y="0" xml:space="preserve"> PROJECT</tspan></text>
    </g>
    <g id="Group_27310" data-name="Group 27310" style="isolation: isolate">
      <text id="Post_A_project_Opportunity" data-name="Post A project/Opportunity" transform="translate(151.8 156.66)" font-size="11" font-family="ArialMT, Arial"><tspan x="0" y="10">Post A project/</tspan><tspan x="0" y="22">Opportunity</tspan></text>
    </g>
    <path id="Path_69205" data-name="Path 69205" d="M122,261.5H250.4" fill="none" stroke="#000" stroke-miterlimit="10" stroke-width="0.26"/>
    <g id="Group_27313" data-name="Group 27313" style="isolation: isolate">
      <text id="GET_CONNECTED" data-name="GET CONNECTED" transform="translate(121.79 256.14)" font-size="11" font-family="Arial-BoldMT, Arial" font-weight="700"><tspan x="0" y="0">GET CONNECTED</tspan></text>
    </g>
    <g id="Group_27314" data-name="Group 27314" style="isolation: isolate">
      <text id="Get_connected_to_a_volunteer." data-name="Get connected to a volunteer." transform="translate(121.79 264.14)" font-size="11" font-family="ArialMT, Arial"><tspan x="0" y="10">Get connected to a </tspan><tspan x="0" y="22">volunteer.</tspan></text>
    </g>
    <g id="Group_27317" data-name="Group 27317">
      <g id="Group_27316" data-name="Group 27316">
        <path id="Path_69206" data-name="Path 69206" d="M275.7,256.4a6.88,6.88,0,0,0-.2-3.2,7,7,0,0,0-1.9-3.2,5.18,5.18,0,0,0-3.2-1.6,5,5,0,0,0-2.1.1" fill="none" stroke="#eb9800" stroke-linecap="round" stroke-linejoin="round" stroke-width="1.99"/>
        <path id="Path_69207" data-name="Path 69207" d="M280.8,258.9a11.94,11.94,0,0,0,0-7.7,14.16,14.16,0,0,0-2.9-4.9,12.45,12.45,0,0,0-4.7-3.1,9.37,9.37,0,0,0-6.4,0" fill="none" stroke="#78ddcf" stroke-linecap="round" stroke-linejoin="round" stroke-width="1.99"/>
        <g id="Group_27315" data-name="Group 27315">
          <path id="Path_69208" data-name="Path 69208" d="M259.4,253.3c-1.6,1.6-1.2,5.2,1.2,8.3s5.7,4.5,7.6,3.3" fill="none" stroke="#3187be" stroke-linecap="round" stroke-linejoin="round" stroke-width="1.99"/>
          <path id="Path_69209" data-name="Path 69209" d="M273.6,271.9a12.682,12.682,0,0,1-1.9,1.4c-2.7,2-9.2-1.7-14.7-9s-7.5-14.5-4.9-16.6c1.4-1.1,1.7-1.4,1.9-1.4" fill="none" stroke="#3187be" stroke-linecap="round" stroke-linejoin="round" stroke-width="1.99"/>
        </g>
      </g>
      <path id="Path_69210" data-name="Path 69210" d="M274.2,270.8l-5.1-6.8a.82.82,0,0,1,.13-1.15l.07-.05,2.3-1.7a.82.82,0,0,1,1.15.13l.05.07,5.1,6.8a.82.82,0,0,1-.13,1.15l-.07.05-2.3,1.7a.71.71,0,0,1-1.2-.2Zm-13.9-18.1-5.1-6.8a.82.82,0,0,1,.13-1.15l.07-.05,2.3-1.7a.82.82,0,0,1,1.15.13l.05.07L264,250a.82.82,0,0,1-.13,1.15l-.07.05-2.3,1.7a.77.77,0,0,1-1.2-.2Z" fill="none" stroke="#3187be" stroke-linejoin="round" stroke-width="1.99"/>
      <path id="Path_69211" data-name="Path 69211" d="M178.4,355.5H320.2" fill="none" stroke="#000" stroke-miterlimit="10" stroke-width="0.26"/>
    </g>
    <g id="Group_27318" data-name="Group 27318" style="isolation: isolate">
      <text id="START_WORKING" data-name="START WORKING" transform="translate(178.18 350.16)" font-size="11" font-family="Arial-BoldMT, Arial" font-weight="700"><tspan x="0" y="0">S</tspan><tspan y="0" letter-spacing="-0.07em">T</tspan><tspan y="0">ART WORKING</tspan></text>
    </g>
    <g id="Group_27319" data-name="Group 27319" style="isolation: isolate">
      <text id="If_you_and_the_volunteer" data-name="If you and the volunteer" transform="translate(178.18 368.16)" font-size="11" font-family="ArialMT, Arial"><tspan x="0" y="0">If you and the volunteer</tspan></text>
    </g>
    <g id="Group_27320" data-name="Group 27320" style="isolation: isolate">
      <text id="find_it_a_good_fit_" data-name="find it a good fit," transform="translate(178.18 381.36)" font-size="11" font-family="ArialMT, Arial"><tspan x="0" y="0">find it a good fit,</tspan></text>
    </g>
    <g id="Group_27321" data-name="Group 27321" style="isolation: isolate">
      <text id="start_working_together" data-name="start working together" transform="translate(178.18 394.56)" font-size="11" font-family="ArialMT, Arial"><tspan x="0" y="0">start working together</tspan></text>
    </g>
    <path id="Path_69212" data-name="Path 69212" d="M350,333H337.3v5.3a3.6,3.6,0,0,1,1.1-.2,2.4,2.4,0,1,1-.2,4.8,2.919,2.919,0,0,1-.9-.2V348h5.3a2.77,2.77,0,0,0-.1,1.3,2.47,2.47,0,0,0,2.4,2,2.43,2.43,0,0,0,2.4-2.4,1.88,1.88,0,0,0-.2-.8h5.3V335.3A2.41,2.41,0,0,0,350,333Z" fill="#eb9800"/>
    <path id="Path_69213" data-name="Path 69213" d="M352.3,360.3V347.9H347a3.59,3.59,0,0,1,.2,1.1,2.4,2.4,0,0,1-4.8-.2,2.921,2.921,0,0,1,.2-.9h-5.3v5.3a2.77,2.77,0,0,0-1.3-.1,2.47,2.47,0,0,0-2,2.4,2.43,2.43,0,0,0,2.4,2.4,1.879,1.879,0,0,0,.8-.2V363h12.4a2.69,2.69,0,0,0,2.7-2.68Z" fill="#78ddcf"/>
    <path id="Path_69214" data-name="Path 69214" d="M324.8,363h12.5v-5.3a3.59,3.59,0,0,1-1.1.2,2.4,2.4,0,0,1,.2-4.8,2.921,2.921,0,0,1,.9.2V348H332a2.77,2.77,0,0,0,.1-1.3,2.47,2.47,0,0,0-2.4-2,2.43,2.43,0,0,0-2.4,2.4,1.88,1.88,0,0,0,.2.8h-5.3v12.5a2.58,2.58,0,0,0,2.56,2.6Z" fill="#3187be"/>
    <path id="Path_69215" data-name="Path 69215" d="M47.1,101.1s-2.2,37,32.2,51" fill="none" stroke="#3187be" stroke-miterlimit="10" stroke-width="1"/>
    <path id="Path_69216" data-name="Path 69216" d="M75.4,154.5l2.7-2.9-.2-4.1,7,6.5Z" fill="#3187be"/>
    <path id="Path_69217" data-name="Path 69217" d="M72,286.8s-3.4,42.1,30.8,56.6" fill="none" stroke="#3187be" stroke-miterlimit="10" stroke-width="1"/>
    <path id="Path_69218" data-name="Path 69218" d="M98.9,345.8l2.8-2.9-.2-4,6.9,6.5Z" fill="#3187be"/>
    <path id="Path_69219" data-name="Path 69219" d="M315.1,172.8s3.5,37.1-19.6,64.4" fill="none" stroke="#3187be" stroke-miterlimit="10" stroke-width="1"/>
    <path id="Path_69220" data-name="Path 69220" d="M290.6,242.4l3.8-10.1,1.4,4.5,4.6,1Z" fill="#3187be"/>
    <path id="Path_69221" data-name="Path 69221" d="M302.2,165.1H285a4.91,4.91,0,0,1-4.9-4.9V133.5a4.91,4.91,0,0,1,4.9-4.9h17.2a4.91,4.91,0,0,1,4.9,4.9v26.7a4.91,4.91,0,0,1-4.9,4.9Z" fill="none" stroke="#3187be" stroke-linejoin="round" stroke-width="1.87"/>
    <path id="Path_69222" data-name="Path 69222" d="M297.3,169.8H280.1a4.91,4.91,0,0,1-4.9-4.9V138.2a4.91,4.91,0,0,1,4.9-4.9h17.2a4.91,4.91,0,0,1,4.9,4.9v26.7a4.91,4.91,0,0,1-4.9,4.9Z" fill="#eb9800"/>
    <path id="Path_69223" data-name="Path 69223" d="M278.9,141.8h19.6m-19.6,6.8h19.6m-19.6,6.7h19.6m-19.6,6.8h19.6" fill="none" stroke="#fff" stroke-linecap="round" stroke-linejoin="round" stroke-width="0.76"/>
  </g>
</svg>
