<svg xmlns="http://www.w3.org/2000/svg" xmlns:xlink="http://www.w3.org/1999/xlink" width="400" height="650" viewBox="0 0 400 650">
  <defs>
    <clipPath id="clip-path">
      <path id="Path_69112" data-name="Path 69112" d="M0,0H400V650H0Z" transform="translate(12.8)" fill="none"/>
    </clipPath>
    <clipPath id="clip-path-2">
      <path d="M12.8,621.1V-90.37h400V621.1Z" fill="none"/>
    </clipPath>
  </defs>
  <g id="volunteer_howItworks-mobile" transform="translate(-12.801)" clip-path="url(#clip-path)">
    <path id="Path_69011" data-name="Path 69011" d="M12.8,0h400V650H12.8Z" fill="none"/>
    <g id="Group_27274" data-name="Group 27274" clip-path="url(#clip-path-2)">
      <g id="Group_27232" data-name="Group 27232">
        <path id="Path_69012" data-name="Path 69012" d="M132.05,502.17c4.8-.1,10,.2,13.55,3.3s4.7,8.43,4.16,13.23c-.75,7.25-4.9,17.6-11.52,20.6s-15.57.64-19-5.76c-1.7-3.3-1.92-10.45-2-14.2-.33-11.35,2-16.97,14.8-17.18Z" fill="none" stroke="#000" stroke-miterlimit="10" stroke-width="0.83"/>
        <path id="Path_69013" data-name="Path 69013" d="M133.8,505a25.27,25.27,0,0,1-16.64,18.13m14.57-12.23a27.53,27.53,0,0,0,16.53,11.2m-13.46.76a17.53,17.53,0,0,1,7.79.75m-19.8-.75a7.9,7.9,0,0,1,6.4-.32m.6.32a12.41,12.41,0,0,1-.64,5.55l4.16,1.07M127.03,532a17.49,17.49,0,0,0,9.92.43m-14.3-7.65a4.5,4.5,0,0,1,5.12,0m9.17.22a13,13,0,0,1,6.4.43" fill="none" stroke="#000" stroke-miterlimit="10" stroke-width="0.83"/>
        <path id="Path_69014" data-name="Path 69014" d="M124.48,524.57v.64a1,1,0,0,0,1.07.11v-.85m13.12.63a.68.68,0,0,0,.49.83h.15a.68.68,0,0,0,.64-.85m-18.25-1.15a11.248,11.248,0,0,1,1.17.75m.53-1.38.53.53m19.75.52a2.12,2.12,0,0,0-.85,1.28m-.75-1.38a5.2,5.2,0,0,0-.32.75m-10.66-5.34c-.43.53.1,1.4.64,1.28s1-1,.43-1.4a.55.55,0,0,0-1,.43c.1.53,1.07.43,1.07-.1m-9.04,18.46a9.7,9.7,0,0,1-3.95,11.52m.1.15,2.67,4.16c.86,1.4,2.34,5.84,3.77,6.84a12.31,12.31,0,0,0,4.8,1.71c3.4.53,7,.2,9.7-1.92,1.92-1.6,2.67-6.83,4.05-8.85s3.3-4.16,5.76-4.37" fill="none" stroke="#000" stroke-miterlimit="10" stroke-width="0.83"/>
        <path id="Path_69015" data-name="Path 69015" d="M119.25,549.75a2.17,2.17,0,0,0-2.94.87v.1c-.32-.85-1.5-.85-2.24-.32s-1.17,1.28-1.92,1.8c2.67,3.4,4.48,14.93,7.9,17.7s7.68,4.6,11.95,4.37a19.561,19.561,0,0,0,6.08-1.49,24.71,24.71,0,0,0,7.47-4.27c3.95-3.52,6.83-17.07,11.2-20.05a.71.71,0,0,1,.75-.21c.2.1.32.64,0,.64" fill="none" stroke="#000" stroke-miterlimit="10" stroke-width="0.83"/>
        <path id="Path_69016" data-name="Path 69016" d="M149.33,547.3a1.38,1.38,0,0,1,1.39,1.07,13.241,13.241,0,0,1,6.4-1v1.28" fill="none" stroke="#000" stroke-miterlimit="10" stroke-width="0.83"/>
        <path id="Path_69017" data-name="Path 69017" d="M111.25,552.5c-1-.75-2.45.43-2.56,1.7s.85,2.35,1.6,3.2c4.27,4.8,4.8,25.6,10.77,27.84,9.7,3.63,21.76-.32,27.3-9.07,2-3.1,7.68-22.93,11-24.64a3.411,3.411,0,0,0,1-.64c.64-.85-.1-2.24-1.28-2.45a4.57,4.57,0,0,0-3.09.85" fill="none" stroke="#000" stroke-miterlimit="10" stroke-width="0.83"/>
        <path id="Path_69018" data-name="Path 69018" d="M151.04,549.2a10.46,10.46,0,0,0-4.37,5.44m-30.94-3.84a14,14,0,0,0,3,4.8m-9.93.33a4.91,4.91,0,0,0-4.16-1.07c-3.84.75-5.44,5.12-6.4,8.85l-5.12,20.37" fill="none" stroke="#000" stroke-miterlimit="10" stroke-width="0.83"/>
        <path id="Path_69019" data-name="Path 69019" d="M107.95,576.73a65.347,65.347,0,0,0-4.48,10.56c-2.24-1.8-4.8-3.73-7.68-3.73s-5.55,2.24-6.93,4.8a22.87,22.87,0,0,0-2.13,8.53" fill="none" stroke="#000" stroke-miterlimit="10" stroke-width="0.83"/>
        <path id="Path_69020" data-name="Path 69020" d="M103.47,586.86a88.908,88.908,0,0,1-3.84,10.56,13.26,13.26,0,0,0-11.52-2.77c-.64.2-1.5.75-1.17,1.4m-.97.95a15.23,15.23,0,0,1,12.59,2.88l.2-2.45m-6.7,7.14-4.6,6.5a3.39,3.39,0,0,0,3.95-.32,8.761,8.761,0,0,0,2.45-3.41,46.66,46.66,0,0,0,2.88-7.25m-8.2,7.14c0-.43-.1-.85-.1-1.28l-2.24-1.17m-.22.42a17.271,17.271,0,0,1-6.93,1.17c-.75,0-1.8-.32-1.8-1.17a1.48,1.48,0,0,1,.53-1.07,15.11,15.11,0,0,1,14.04-4.69" fill="none" stroke="#000" stroke-miterlimit="10" stroke-width="0.83"/>
        <path id="Path_69021" data-name="Path 69021" d="M79.36,605.74l2-2.24m3.24,2.67a18.449,18.449,0,0,0-7.68,1.17c-2.35,1.07-4.27,3.63-3.84,6.3a2.51,2.51,0,0,0,.75,1.49,2.74,2.74,0,0,0,1.28.53,11.24,11.24,0,0,0,11.84-4.91" fill="none" stroke="#000" stroke-miterlimit="10" stroke-width="0.83"/>
        <path id="Path_69022" data-name="Path 69022" d="M78.5,610.54l-2.24,2.67a9.05,9.05,0,0,0,2.24-2.67" fill="none" stroke="#000" stroke-miterlimit="10" stroke-width="0.83"/>
        <path id="Path_69023" data-name="Path 69023" d="M.43,595.6s48.85,8,73,7.36c2.56-19.1,4.7-35.84,6.5-55-24.32-.64-78.4,6.4-78.4,6.4Z" fill="none" stroke="#000" stroke-miterlimit="10" stroke-width="0.83"/>
        <path id="Path_69024" data-name="Path 69024" d="M.43,595.6s48.85,8,73,7.36c2.56-19.1,4.7-35.84,6.5-55-24.32-.64-78.4,6.4-78.4,6.4Z" fill="none" stroke="#000" stroke-miterlimit="10" stroke-width="0.83"/>
        <path id="Path_69025" data-name="Path 69025" d="M25.5,576h2.77a3.35,3.35,0,0,0-2.24.53,3.85,3.85,0,0,0-.85,1.6,48.85,48.85,0,0,0-1.49,11.2q-.8,13.44-1,26.88a77.572,77.572,0,0,0,21.65-.53" fill="none" stroke="#000" stroke-miterlimit="10" stroke-width="0.83"/>
        <path id="Path_69026" data-name="Path 69026" d="M35.4,608.73a68.445,68.445,0,0,1,10.45.21,7.35,7.35,0,0,1,3.41.85,2.4,2.4,0,0,1,0,4.37C46.5,616,43.1,616,39.9,616m-5.02-39.06a119.43,119.43,0,0,0-.21,35.41" fill="none" stroke="#000" stroke-miterlimit="10" stroke-width="0.83"/>
        <path id="Path_69027" data-name="Path 69027" d="M.96,603.93H22.3m10.77,1.7,43.95-.32m17.7.2c9.6-.2,46,.2,55.57,0m10.14-54.4c1.4.75,2.13,2.35,2.67,3.84,3.95,10.13,8,20.48,9,31.47m-1.3-.97a12.881,12.881,0,0,0-10.13.64,13.11,13.11,0,0,0-6.4,7.89m20.03,3.74a3.39,3.39,0,0,0,.21-1.49l-.1-4.6m4.7-13a19.24,19.24,0,0,0-5.55,13.87" fill="none" stroke="#000" stroke-miterlimit="10" stroke-width="0.83"/>
        <path id="Path_69028" data-name="Path 69028" d="M178.67,579.6a6.45,6.45,0,0,0-7.79-2.45m-15.68-.65a57.329,57.329,0,0,1,2.45,10.49m-4.9,22.6a14.78,14.78,0,0,1-2.67-9,8.54,8.54,0,0,1,2.13-5.76,4.71,4.71,0,0,1,5.76-.85c.64,0,1.07.53,1.5,1.07a10.48,10.48,0,0,1,2.56,7.47m-8.33.5a27.3,27.3,0,0,0,.21,6.61m3.32-6.2a11.83,11.83,0,0,0-.75,5.76" fill="none" stroke="#000" stroke-miterlimit="10" stroke-width="0.83"/>
        <path id="Path_69029" data-name="Path 69029" d="M154.24,609.58a8.67,8.67,0,0,0,7.79-8m17.27-23.36c2,6.72-1.28,13.76-4.48,20.05m-9.02-76.9a39.251,39.251,0,0,0-15.36-.85m24.92,56.95c2.44-10.47,3.1-31.47,2.77-42.24a50.188,50.188,0,0,0-1.28-6.93M107.4,579.4,109,581a25.381,25.381,0,0,0,4.8,4.16,6.85,6.85,0,0,0,6.08.64m23.37-1.7a17,17,0,0,0,9.49-.53m-35.1-59.1a14.35,14.35,0,0,0-10.24,9.17,25.92,25.92,0,0,0-1.07,6.4l-1.28,14.2m.86,28.27c2.77.75,3.63,4.05,4.05,6.83a145.678,145.678,0,0,1,.43,15.25m31.15-66.88a14.46,14.46,0,0,0,3.63,12.8m3.3-26.04a2.68,2.68,0,0,1,2.88-1.81,7.65,7.65,0,0,1-5.23,8m-17.8,2.25c1.17,2,4.7,1.7,5.55-.43m-66.87-3a4.59,4.59,0,0,0,2.56,5.76,2.73,2.73,0,0,0,2.24,0,1.34,1.34,0,0,0,.61-1.79l-.07-.13a2.38,2.38,0,0,0,2.35,1.28,2.15,2.15,0,0,0,1.71-2c1.17,1.6,4.16,1,4.7-1" fill="none" stroke="#000" stroke-miterlimit="10" stroke-width="0.83"/>
        <path id="Path_69030" data-name="Path 69030" d="M76.16,526.8l4.6.64a3.109,3.109,0,0,0,1.71-.11,1,1,0,0,0,.58-1.29v-.1M79.15,528a4.69,4.69,0,0,0,4.48,4.16c0-.53.1-1.07.1-1.5m-6.6-4.28c-.64-1.4.85-3,2.35-3a5,5,0,0,1,3.73,2.13m-12.05,3.32a4.55,4.55,0,0,0,1.6,5.33m2.98-5.96a4.44,4.44,0,0,0,.32,2.88,1.59,1.59,0,0,0,2.45.43m-11.2-1.6a10.17,10.17,0,0,1,8.43-4.27m8.97.1a5.27,5.27,0,0,1,5,5.23,5.11,5.11,0,0,1-5.44,4.69m.44-8.86a4.2,4.2,0,0,0,.43,4.69,2.94,2.94,0,0,0-1.6,3.84m-10.46.22a7.54,7.54,0,0,0,10.66.22l.22-.22M68.49,526.8c0-4.48,4.6-7.9,9.07-8.2a9.43,9.43,0,0,1,5.86,1.4,5.36,5.36,0,0,1,2.39,5.32" fill="none" stroke="#000" stroke-miterlimit="10" stroke-width="0.83"/>
        <path id="Path_69031" data-name="Path 69031" d="M84.6,526.27A25.76,25.76,0,0,1,92.48,516M70.8,520.73c3-5,6.4-10.45,11.95-12.48m-1.47-.85a18.64,18.64,0,0,1,13.33-7m.2-17c-2,2.13-2.24,5.44-2,8.43a40.9,40.9,0,0,0,6,17.07c1.17,2,2.77,4.05,5.12,4.48,3.3.53,5.87-2.45,8-5,2.56-3,5.33-5.76,7.47-9.07s3.3-7.47,2.13-11.2M82.8,507c3-1.8,6.93-.85,9.6,1.4s4.05,5.55,5,8.85c.75,2.35,1.4,5,3.3,6.6,2.13,1.7,5.23,1.7,8,1.5M81.92,509.42a6.53,6.53,0,0,1,5.44.75A20.231,20.231,0,0,1,91.52,514a11.67,11.67,0,0,1,2.67,4.05,9.851,9.851,0,0,1,.32,3.09c.1,3.52.64,7.15,2.56,10.13s5.55,5,9,4.27M125.8,496.1c9.28.2,19,.43,27.3,4.6,6.2,3.2,11.2,8.32,16.1,13.33,3.4,3.52,9.28,14.2,7.25,17.07a63.22,63.22,0,0,1-11.09,12.69,29.731,29.731,0,0,0-5.33,5m-10.6-33.3a15,15,0,0,1,13.65,5.76" fill="none" stroke="#000" stroke-miterlimit="10" stroke-width="0.83"/>
        <path id="Path_69032" data-name="Path 69032" d="M162.56,520.1a9.29,9.29,0,0,1,9.17-2.88M101.55,486.7c1.07,3.52,5.12,5.12,8.64,6.3s7.47,2.88,8.43,6.5M100.8,488c-3.52-.2-6.2,3.2-7.15,6.5a1.76,1.76,0,0,0,0,1.28c.2.43.85.64,1.07.2m-.42.85a5.6,5.6,0,0,1,4.69.85m11.1-1.18a6.81,6.81,0,0,0-5.55.85m-5.73.98a11.12,11.12,0,0,1,0,6.67m1.15,3.46a6.55,6.55,0,0,0,7-2.88m-3.15-6.4a19.09,19.09,0,0,0,9.49-.21" fill="none" stroke="#000" stroke-miterlimit="10" stroke-width="0.83"/>
        <path id="Path_69033" data-name="Path 69033" d="M95.36,500a7.53,7.53,0,0,0,4.05.53M93.23,484.9a34.23,34.23,0,0,1,6.61-9c3.1-3.1,7.15-5.65,11.52-5.23a12,12,0,0,1,9.28,7.15,24,24,0,0,1,1.71,11.95m2.98,5.9a8.18,8.18,0,0,1-2.77,7.57m2.44-6.4a3.22,3.22,0,0,0-5,.21m45.97,23.7a88.619,88.619,0,0,1-5.76,20.8,30.16,30.16,0,0,0-9.28-.85,55.578,55.578,0,0,0,.11,8.43m2.88-4.7-.53,2.77m.3-2.87h4.27m-56.32-8.43c.53,6.08-1.28,15.68-1.4,21.87m15.55-53.64a22,22,0,0,1-1.28,6.51,7.62,7.62,0,0,1-4.59,4.48c-2.77.85-5.76-.53-8.32-1.8" fill="none" stroke="#000" stroke-miterlimit="10" stroke-width="0.83"/>
      </g>
      <path id="Path_69034" data-name="Path 69034" d="M237.65,494.8a3.2,3.2,0,0,1,3.2-.64c2.13,1,2,3.84,1.7,6.08a7.72,7.72,0,0,0-6.61-3.2,7.59,7.59,0,0,0-6.08,4.16c-.32.75-.64,1.6-1.4,1.8s-1.7-.85-1-1.28l-.2.43a6.72,6.72,0,0,1,2.56-10,5.811,5.811,0,0,0,2.56-1.28c.53-.53,1-1.6,1.7-1.28a7.59,7.59,0,0,1,3.84,8.43Z"/>
      <g id="Group_27233" data-name="Group 27233">
        <path id="Path_69035" data-name="Path 69035" d="M242.35,500.14c.32,3.2.53,6.83-1.6,9.17a5.64,5.64,0,0,1-5.55,1.49,5.44,5.44,0,0,1-3.84-4.16" fill="none" stroke="#000" stroke-miterlimit="10" stroke-width="0.83"/>
        <path id="Path_69036" data-name="Path 69036" d="M232.32,502.38a3.21,3.21,0,0,1,4.48-.64m2-.32a1.2,1.2,0,0,1,1.92,0m-7.76,2.03,2.35.1m4.26-.2a5.192,5.192,0,0,1,1.28.11,5.187,5.187,0,0,0-1.28-.11m-1.77-2.04,1.28,4.27m-3.03,1.43,2.88.1m-10.45-1a1.76,1.76,0,0,0-1.6-2.35c-1.07,2,1.17,4.8,3.4,4.27" fill="none" stroke="#000" stroke-miterlimit="10" stroke-width="0.83"/>
        <path id="Path_69037" data-name="Path 69037" d="M229.87,507.6l.32,6.6m-1.2.98c-.32-1.07-1.92-1.07-3-.85a12.39,12.39,0,0,1-8-1.81m.35-.22c-3.2-4.9-8.2-9.5-12.6-13.44m.12.32a26.564,26.564,0,0,0-7.57-6c-.53.75,1.28,3.3,1.92,3.95a5.05,5.05,0,0,0,2.56,1.07m-.86.66-2.24-1.07a1.7,1.7,0,0,0,2.13,2,1.5,1.5,0,0,0-.32,2.56,1.85,1.85,0,0,0,2.56-.56l.1-.2a2.53,2.53,0,0,0-.85-2.88" fill="none" stroke="#000" stroke-miterlimit="10" stroke-width="0.83"/>
        <path id="Path_69038" data-name="Path 69038" d="M205.97,501.74l-2.35.43" fill="none" stroke="#000" stroke-miterlimit="10" stroke-width="0.83"/>
        <path id="Path_69039" data-name="Path 69039" d="M205.12,501.74l10,15.8" fill="none" stroke="#000" stroke-miterlimit="10" stroke-width="0.83"/>
        <path id="Path_69040" data-name="Path 69040" d="M214.4,517.2a10.11,10.11,0,0,0,7.4,1.79m1.35-5.3c1.5,3-1,7.15-4.27,7.36a2.28,2.28,0,0,1-.32-2m3.24,1.44,7,.32m1.5-7.12a5.76,5.76,0,0,0,4.8,3.41,6.2,6.2,0,0,0,5.33-2.56m-1.7-3.75.64,4.27m.2-.97a20.13,20.13,0,0,1,12.16,14.19l-4.27.53h.34" fill="none" stroke="#000" stroke-miterlimit="10" stroke-width="0.83"/>
        <path id="Path_69041" data-name="Path 69041" d="M246.2,527.13a3.87,3.87,0,0,1,1.28,3l1.8,13.44q-9.76,0-19.52.64M224,520.73c4.7,6.5,3.4,15.25,4.48,23.15.1.75.53,1.8,1.28,1.7m21.76-17.08a127.02,127.02,0,0,1,.64,12.69c0,3.73-.32,8-3.4,10.13m-1.2-5.1-.85,7.15c-.1.64.32,1.7.85,1.28m-19.4-9.82c-.53,13.33,1.28,25.28,2.45,38.6m8.96-27.5c0,9.7-1.07,19.2-1.8,28.7M164.05,461.1l4.7,45.44,31.15-3.63m10.98-1.9c4.7-.53,9.4-.85,14.2-1.07m-61.45-40.23,2.77-.53h65.4" fill="none" stroke="#000" stroke-miterlimit="10" stroke-width="0.83"/>
        <path id="Path_69042" data-name="Path 69042" d="M229.8,458.75v31.57m-57.2,16.65V517m-9.72-55.37-.32,2.35v43.1m112.96,20.58a6.5,6.5,0,0,0-4.59,3.73c1.4-3.4,6.6-3.84,9.28-1.28s2.67,7,1.07,10.24m-.42-.65a7.09,7.09,0,0,1-7.36,2.88,7.22,7.22,0,0,1-5.33-5.76c-.43-2.67,1.6-5.87,4.27-5.44m-.34,13.24a30,30,0,0,1,10.69-1.39,48.183,48.183,0,0,0-8.75.53,6.45,6.45,0,0,0-3.2,1.17,2.34,2.34,0,0,0-.53,3.09l11.3-.64a5.9,5.9,0,0,0,2.77-.64,1.81,1.81,0,0,0,.7-2.46l-.06-.1a1.16,1.16,0,0,0-1.39.32" fill="none" stroke="#000" stroke-miterlimit="10" stroke-width="0.83"/>
        <path id="Path_69043" data-name="Path 69043" d="M288.32,548.35l-6.5-.53-6.72-.1a14.15,14.15,0,0,0-4.8.75c5.87.54,12.06-.53,18.03-.1Zm-19.84.65a21.19,21.19,0,0,0-5.55,9,.91.91,0,0,0,0,.75c.1.2.53.1.53-.1" fill="none" stroke="#000" stroke-miterlimit="10" stroke-width="0.83"/>
        <path id="Path_69044" data-name="Path 69044" d="M285.8,548.57c1.8-.85,4.16.2,5.23,1.92a13.571,13.571,0,0,1,1.6,5.87c0,.43-.75.64-.43.32m11.7-25.6a3.35,3.35,0,0,1-1.28,2.88c-.64.43-1.6.85-1.6,1.6s.85,1.07,1.5,1.07a4.41,4.41,0,0,1,2,.21m1.6-1.93a6.82,6.82,0,0,0-.53,4.8m-2.67-8.84a8.329,8.329,0,0,1,1-3.63l2.56-.2a4.3,4.3,0,0,0-5.65,2.13c-.32-1.8,1.17-3.63,2.88-4.37s3.73-.53,5.55-.32m.53,8.1a1,1,0,0,1-.21-1.39c.85-.43,1.92.43,2.13,1.4a5.55,5.55,0,0,1-.53,2.88,2,2,0,0,1-2.67-.11m1.78,1.05a4,4,0,0,1-1.49,5.12,5.64,5.64,0,0,1-5.65-.11,4.381,4.381,0,0,1,.11-1.17m.93-8.84a4.25,4.25,0,0,1,2.24,1,5.09,5.09,0,0,0-2.35,1.28m3.96-3.68a8.329,8.329,0,0,1-.11,3.63,4,4,0,0,1-.53-4.16" fill="none" stroke="#000" stroke-miterlimit="10" stroke-width="0.83"/>
        <path id="Path_69045" data-name="Path 69045" d="M308.37,524.14a11.17,11.17,0,0,1,7.79,3.41,7.85,7.85,0,0,1,1.49,8.11,6.15,6.15,0,0,1-7.25,3.41" fill="none" stroke="#000" stroke-miterlimit="10" stroke-width="0.83"/>
        <path id="Path_69046" data-name="Path 69046" d="M312.53,539.5l-.85,5.65a14.43,14.43,0,0,0-8.75-.53l1.17.64m-1.06-.32a17.17,17.17,0,0,0-7.36,7.47m12.8,4.7c.32-.2.1-.75-.2-.85a1.4,1.4,0,0,0-1.07.32,9.3,9.3,0,0,0-3.84,5.12c1.07-1.92,2.24-4.05,4.27-4.9,3-1.17,6.6,1.28,7,4.37s-1.8,6.3-4.8,7.47m-2.74-11.1c-1.17,2.77-2.45,5.65-1.92,8.53s3.2,5.76,6.08,5" fill="none" stroke="#000" stroke-miterlimit="10" stroke-width="0.83"/>
        <path id="Path_69047" data-name="Path 69047" d="M304.96,558.7a17.161,17.161,0,0,0-3.2,6.93,3.6,3.6,0,0,0,.11,2.13c.32.64,1.28,1.07,1.8.53m1.3-.1-2.35,5.12a8.72,8.72,0,0,1,4.37.53c-1.92.53-4.05-1-5.87,0a4.94,4.94,0,0,0-1.6,1.71l-3.63,5.76m-32.84-14.1c2.45-1.7,6.5.2,6.72,3.3.43-3.73-4.16-6.5-7.68-5.33s-5.76,4.8-6.5,8.43a8,8,0,0,0,.21,5.23,4.26,4.26,0,0,0,4.16,2.77" fill="none" stroke="#000" stroke-miterlimit="10" stroke-width="0.83"/>
        <path id="Path_69048" data-name="Path 69048" d="M268.6,567.23a17.5,17.5,0,0,1,1.39,12.69,48.861,48.861,0,0,0-11.09,1.6m-1.94,1.7a43.879,43.879,0,0,1,14.93.11c-2,.85-4.16-.1-6.3-.53-6.83-1.28-13,3.84-14,10.67" fill="none" stroke="#000" stroke-miterlimit="10" stroke-width="0.83"/>
        <path id="Path_69049" data-name="Path 69049" d="M269.8,583.45c4.7,1.4,8.32,5.65,8.1,10.45M207.8,552a1.68,1.68,0,0,0-2-.64v4.05a5.2,5.2,0,0,0,4.16-.53m-2.4,2.65a4.55,4.55,0,0,1-3.84,3.41,4.31,4.31,0,0,1-4.37-2.67m11.64-2.34a12.28,12.28,0,0,1,1.28,7.25m-13.88-5.44a11.51,11.51,0,0,1,1.6,6.93" fill="none" stroke="#000" stroke-miterlimit="10" stroke-width="0.83"/>
        <path id="Path_69050" data-name="Path 69050" d="M204.27,563.4a15.26,15.26,0,0,0-13.87,11.09m10.45-10.9c6.72-2.56,15.25,1.8,17.17,8.75" fill="none" stroke="#000" stroke-miterlimit="10" stroke-width="0.83"/>
        <path id="Path_69051" data-name="Path 69051" d="M160.96,605.42c16.1-1.4,135.68.75,151.8-.64M199.9,558c-3.95-1.28-4.48-7.25-1.7-10.35s7.36-3.84,11.52-3.63a7.8,7.8,0,0,1,4.16,1.07,7.68,7.68,0,0,1,2.35,4.27,31.54,31.54,0,0,1,.85,9.49,30.841,30.841,0,0,0-3.2.75c-.1,0-.2.1-.32.2" fill="none" stroke="#000" stroke-miterlimit="10" stroke-width="0.83"/>
        <path id="Path_69052" data-name="Path 69052" d="M208,550.5c.1,2.13,3.52,2.77,5,1.28s1.5-4.05,1-6.2m-39.28,52.48v7.15" fill="none" stroke="#000" stroke-miterlimit="10" stroke-width="0.83"/>
      </g>
      <path id="Path_69053" data-name="Path 69053" d="M301.65,526a5.41,5.41,0,0,1,3.41-1.6,18,18,0,0,1,5.33-.32,9.14,9.14,0,0,1,4.91,2l1.17,1.28a6.66,6.66,0,0,1,1.81,3,11,11,0,0,1,.11,1.81,8.29,8.29,0,0,1-1.49,4.37,6.68,6.68,0,0,1-5.87,2.77,10.729,10.729,0,0,0-.43-2.67c0-.1-.1-.32,0-.43s.2-.1.32-.2c.64-.2.85-1,1-1.6a11.586,11.586,0,0,0,.11-1.92,1.6,1.6,0,0,0-.43-1.17,1.73,1.73,0,0,0-1-.53,3,3,0,0,0-1.39,0,1.13,1.13,0,0,0-.85,1v1a.39.39,0,0,1-.11.32c-.1,0-.1,0-.2-.1a1.86,1.86,0,0,1-.43-1.28,4,4,0,0,0-.11-1.17v-.64c.1-.53.75-.85.85-1.5a1.08,1.08,0,0,0-.53-1.07,2.53,2.53,0,0,0-1.28-.32,8.719,8.719,0,0,0-2.88.11,26.7,26.7,0,0,0-2.77.75,3.134,3.134,0,0,1,.76-1.88Zm-31.57,5.4a8.45,8.45,0,0,0-1.6,4.48,5.192,5.192,0,0,0,.11,1.28,7,7,0,0,0,1.17,2.56,11.335,11.335,0,0,0,1,1.17,7.779,7.779,0,0,0,4.37,1.28,11.531,11.531,0,0,0,1.92,0,7.831,7.831,0,0,0,3.52-2,3.91,3.91,0,0,0,1.28-1.39,4.06,4.06,0,0,0,.32-1.92,9.172,9.172,0,0,0-.11-1.71,4.71,4.71,0,0,0-.64-1.71,10.56,10.56,0,0,0-2.56-3.84,7.13,7.13,0,0,0-3.31-1.07c-2.06-.43-4.3,1.17-5.47,2.87Zm36.72,25.8-1.07,5.23a16.47,16.47,0,0,0-.43,3.2,4.37,4.37,0,0,0,1,3,5.221,5.221,0,0,0,1.39,1.28,7.27,7.27,0,0,0,3.73,1.07,7.16,7.16,0,0,1-1.07-2.45,7.08,7.08,0,0,0,3.84-3.63l.53-1.28a5.26,5.26,0,0,0-1.39-5.23,7,7,0,0,0-3.31-1.71C308.92,556.45,306.99,555.92,306.8,557.2ZM125.97,518.27a13.2,13.2,0,0,1-1.92,1.49,28.14,28.14,0,0,1-3.09,1.6l-3,1.28a43,43,0,0,1-.43-9.81,11.08,11.08,0,0,1,.75-3.73,13.249,13.249,0,0,1,2-2.77,8.47,8.47,0,0,1,3.95-2.77,28.13,28.13,0,0,1,12.59-1.92l3.4.43a9.922,9.922,0,0,1,2.56.53,8.6,8.6,0,0,1,2.56,1.81,15.3,15.3,0,0,1,4.69,8.21c.64,3.52-.43,7.15-1.5,10.67a1.56,1.56,0,0,0-.75-1.39,4.061,4.061,0,0,0-1.6-.53,26.621,26.621,0,0,1-6.83-3.2,15.4,15.4,0,0,1-3.41-2.45,21.649,21.649,0,0,1-1.39-1.92c-.43-.64-1.5-2.45-2.24-2.67s-1.5,1.4-1.92,2a51.312,51.312,0,0,1-4.44,5.14ZM96.32,489.9a11.29,11.29,0,0,0-2.77,4.91,29.7,29.7,0,0,1-.64-6.19,13.49,13.49,0,0,1,.32-3,11,11,0,0,1,1.49-3.2,31.911,31.911,0,0,1,8.85-9.28,20.522,20.522,0,0,1,3.31-1.92,10.509,10.509,0,0,1,3-.85,11.909,11.909,0,0,1,5.44,1.17,6.56,6.56,0,0,1,2,1.28,13.513,13.513,0,0,1,1.17,1.39l1.6,2.13c.1.2.32.43.32.64a2.9,2.9,0,0,1,0,1,4.91,4.91,0,0,0,1.07,1.92,6.31,6.31,0,0,1,.75,3.09,30.049,30.049,0,0,1-.11,8.75,15.83,15.83,0,0,1-3.41,8,9.17,9.17,0,0,0-3.09-4.37,20.759,20.759,0,0,0-4.9-2.37l-3.52-1.28a7.581,7.581,0,0,1-1.92-.85,11.336,11.336,0,0,1-1.17-1c-1.07-1-2.13-2.56-3.73-2.35a9.22,9.22,0,0,0-4.06,2.38Zm117.55,60.8a3.89,3.89,0,0,1-4.69,1.81c-1.17-.53-2.24-1.7-3.4-1.17a6.25,6.25,0,0,0-.21,2.77,2,2,0,0,0,2,1.6,3.79,3.79,0,0,1-1.92,4.27,5.1,5.1,0,0,1-4.8-.11,10.1,10.1,0,0,1-3.63-3.41,17.243,17.243,0,0,1-1.07-1.92c-1.07-3.1.75-6.5,3.4-8.32s6-2.35,9.17-2.77c2.13-.2,3.63,0,4.9,1.8a5,5,0,0,1,.24,5.44Zm48.53,14.4a10.65,10.65,0,0,0-1.49.85,12.66,12.66,0,0,0-4.48,13.55,1.72,1.72,0,0,0,.43.75,1.75,1.75,0,0,0,1.07.21,66.484,66.484,0,0,0,11.31-1c.32-.1.75-.1,1-.43a1.21,1.21,0,0,0,.32-.85c.43-3.2-.53-6.4-1.4-9.4-1-2.73-3.77-4.8-6.77-3.7Z"/>
      <g id="Group_27234" data-name="Group 27234">
        <path id="Path_69054" data-name="Path 69054" d="M260.37,566.27l-.1-4.8a2.71,2.71,0,0,1,.21-1.28,2.4,2.4,0,0,1,2.13-1,241.67,241.67,0,0,1,30.4-1.39,3.75,3.75,0,0,1,2.13.53,2.84,2.84,0,0,1,.75,1.92l1.5,11M314.56,545a85.832,85.832,0,0,1-16.85,6.83,8.068,8.068,0,0,0-2.77,1.17,4.11,4.11,0,0,0-1.17,4.8" fill="none" stroke="#000" stroke-miterlimit="10" stroke-width="0.83"/>
        <path id="Path_69055" data-name="Path 69055" d="M313.92,545.58c.32-.85,1.7-.75,2.35-.1a4.58,4.58,0,0,1,.75,2.67l.43,13.65m-17.4,31.03a56.625,56.625,0,0,0,.85-11.2,7.631,7.631,0,0,1,.32-2.67,4.46,4.46,0,0,1,2.13-1.81l14.4-8.1c.53-.32.75.75.85,1.28a45.29,45.29,0,0,1-.64,9.28l-1.5,10.35M251.3,593.9c9.92-.53,19.95-.64,29.87-.43a1.48,1.48,0,0,1,1.81,1.6,17.409,17.409,0,0,1,.32,4.69m-96.95-24.3q11-.48,22.08-.64c2.24,0,4.8.1,6.3,1.8a7.82,7.82,0,0,1,1.49,4.05,105.375,105.375,0,0,1,1.17,11.52" fill="none" stroke="#000" stroke-miterlimit="10" stroke-width="0.83"/>
        <path id="Path_69056" data-name="Path 69056" d="M187.1,575.55a2.5,2.5,0,0,0-2.56.53c-1,1-1.07,2.45-1.07,3.84a113.524,113.524,0,0,0,.75,13.44m28.68-18.23a4.18,4.18,0,0,1,1.81-2.45,3,3,0,0,1,1.92-.43c1.4.32,2.13,1.8,2.45,3.2a42.82,42.82,0,0,1,1.6,14.72m-2.98,1.5a4.83,4.83,0,0,1,3.63-1.17m27.3-38.62c1,6,.1,12.05-.85,18-.43,3-2.13,9-3.3,14.6m-74.14.9c.64-.2,1.28.64,1.5,1.28a9.26,9.26,0,0,1-1.81,7.89c-1.7,2.24-5.12,3.84-7.68,4.9" fill="none" stroke="#000" stroke-miterlimit="10" stroke-width="0.83"/>
        <path id="Path_69057" data-name="Path 69057" d="M174.08,592a4.6,4.6,0,0,0-2.88.64m-7.68,6.5.2,5.23c0,.2.2.53.32.43" fill="none" stroke="#000" stroke-miterlimit="10" stroke-width="0.83"/>
      </g>
      <path id="Path_69058" data-name="Path 69058" d="M232.75,586.75a23.63,23.63,0,0,1-2.45,4.59.909.909,0,0,1-.75.53c-.53,0-.64-.64-.64-1.17a5.27,5.27,0,0,1,3-4.27c.1.2.2.53.32.75"/>
      <path id="Path_69059" data-name="Path 69059" d="M239.36,575.77a3.633,3.633,0,0,1,1.07.11c.32.1.64.32,1,.43a8.672,8.672,0,0,1,2,1.92,9.12,9.12,0,0,1,1.81,5.87,4.42,4.42,0,0,1-.32,1.71,8.83,8.83,0,0,1-1.17,1.6c-3.2,3.52-10.35,5.12-12.9-.2-3.1-6.2,2.33-11.33,8.52-11.43Z"/>
      <path id="Path_69060" data-name="Path 69060" d="M242.67,586.75a10.28,10.28,0,0,0,2.24,3.73,1.63,1.63,0,0,0,1.07.64c.85,0,1.17-1.17.85-2a6.25,6.25,0,0,0-1.81-2.56,2.57,2.57,0,0,0-1.92-.75c-.64.1-1.17,1.07-.75,1.5.32,0,.64.1,1,.1"/>
      <g id="Group_27235" data-name="Group 27235">
        <path id="Path_69061" data-name="Path 69061" d="M223.68,603.3a.2.2,0,0,1-.24.15h-.08c-.1-.1-.1-.2-.1-.43a97.836,97.836,0,0,1,.64-12.48,205.572,205.572,0,0,1,21.44-.53,12.05,12.05,0,0,1,5.12.85,44.351,44.351,0,0,1,.75,13M175.36,467a67.562,67.562,0,0,0-4.48,10.77" fill="none" stroke="#000" stroke-miterlimit="10" stroke-width="0.83"/>
        <path id="Path_69062" data-name="Path 69062" d="M175.04,467.18a7.7,7.7,0,0,1,1.92,2.56l2.77,5a17.75,17.75,0,0,1,1.39,2.88m-8.85-3.4c.53-.1,1.07-.1,1.6-.2h5.44m2.77-6.62v10.24m0-9.94a8.23,8.23,0,0,1,2.67-1.07,3,3,0,0,1,2.67.85,3.61,3.61,0,0,1,.64,1.6,3.31,3.31,0,0,1-.43,2.45,3.791,3.791,0,0,1-1.71,1.17,6.71,6.71,0,0,1-3.52.43m7.25-5.83v10.13" fill="none" stroke="#000" stroke-miterlimit="10" stroke-width="0.83"/>
        <path id="Path_69063" data-name="Path 69063" d="M189.55,467.3a6.779,6.779,0,0,1,2.24-1,3.38,3.38,0,0,1,2.88,1.17,3.5,3.5,0,0,1,.43,3.09,3.81,3.81,0,0,1-2.24,2,7.481,7.481,0,0,1-3.09.32m7.56-7.18.32,1.6v9" fill="none" stroke="#000" stroke-miterlimit="10" stroke-width="0.83"/>
        <path id="Path_69064" data-name="Path 69064" d="M197.65,475.7a1.28,1.28,0,0,1,.85-.21h6.3m-.2-9.7c.1.43.1.85.2,1.28v8.32m.32,0c.1-.1.2-.1.32-.2h6.6m-7.24-4.6h5.44" fill="none" stroke="#000" stroke-miterlimit="10" stroke-width="0.83"/>
        <path id="Path_69065" data-name="Path 69065" d="M204.27,466.33a1,1,0,0,1,.53-.11h6.4M185.8,498.1a4.12,4.12,0,0,1-3.84-.32,11.909,11.909,0,0,1-3-2.67,8.63,8.63,0,0,1-2.24-3.41,4.59,4.59,0,0,1,2.13-4.91c1.6-1,3.4-.32,5.23.1a4.21,4.21,0,0,0,3-.53c1.4-1,3.3-1.92,4.6-1a4.47,4.47,0,0,1,1.81,4.37,10.63,10.63,0,0,1-1.81,4.59,8.7,8.7,0,0,1-2.45,2.77,5.35,5.35,0,0,1-3.42,1Z" fill="none" stroke="#000" stroke-miterlimit="10" stroke-width="0.83"/>
        <path id="Path_69066" data-name="Path 69066" d="M182.08,486a16.7,16.7,0,0,1,5.65-.43" fill="none" stroke="#000" stroke-miterlimit="10" stroke-width="0.83"/>
        <path id="Path_69067" data-name="Path 69067" d="M184.96,486.7a4.71,4.71,0,0,1,3-5.33m-2.16,1.4a2.52,2.52,0,0,1-2.07-2.9q0-.1,0-.2a1.88,1.88,0,0,1,2,.75,2.38,2.38,0,0,1,.21,2.24m.4.35a6.65,6.65,0,0,0,6.29-.75,11.75,11.75,0,0,0-5.44-.21.81.81,0,0,0-.53.21.37.37,0,0,0,.08.52h0m-5.85,7.33a4.5,4.5,0,0,0,1.71,3.52m2.67-3.08.32,2.35m5.33-3.3a8.78,8.78,0,0,1-3.2,6m19.52-3.98a4.85,4.85,0,0,0-.11-4.37c-.1-.1-.1-.2-.2-.2a.7.7,0,0,0-.53.32c-1.17,2,.32,4.6-.1,6.83-.1.43-.43,1-.85,1-.1,0-.2-.1-.32-.1a1.78,1.78,0,0,1-.75-1.92,1.7,1.7,0,0,1,1.6-1.28c1.4-.1,2.56,1.28,3.84,1a1.55,1.55,0,0,0,1.07-1.81,1.18,1.18,0,0,0-1.81-.64,1.07,1.07,0,0,0,.32,1.81c.75.2,1.5-.85,1.07-1.4,0,.43.64.64,1,.43a2.4,2.4,0,0,0,.75-1.07c0,.43.64.43,1,.2s.53-.64,1-.64c.2,0,.32.1.53.1a1.68,1.68,0,0,0,1.81-.53m77.08,104.04a37.27,37.27,0,0,0,11.41.32c4.48-.75,8.64-3.2,13.23-3.2a35.5,35.5,0,0,1,7.36,1.28,34.432,34.432,0,0,0,15.47-.53m-60.37-17.07c6.3,2,13.12-2.77,19.52-1.07m-122.14-16.2c6.6-.1,13.65-3.52,19.52-.53m19.85-1.07h9m-146.93.63c2.13,1.6,5.12.1,7.68-.32,1.4-.2,11.52.1,12.9.2" fill="none" stroke="#000" stroke-miterlimit="10" stroke-width="0.83"/>
      </g>
      <path id="Path_69068" data-name="Path 69068" d="M147.2,521.7a31.82,31.82,0,0,0,1.49,15.15c.53,1.5,1.8,3.2,3.3,2.56,1-.43,1.17-1.6,1.28-2.56a18.15,18.15,0,0,0-6.62-15.15,1.4,1.4,0,0,0,.43,1.39m-29.96-1.94c-.2-.75-1.28-.1-1.6.53a24.63,24.63,0,0,0-3,15,1.8,1.8,0,0,0,.32,1.07,1.66,1.66,0,0,0,2.56,0,4.7,4.7,0,0,0,1.17-2.67,59.29,59.29,0,0,0,1.39-13"/>
      <path id="Path_69069" data-name="Path 69069" d="M115.63,544.4a6.518,6.518,0,0,0,1.6-4.48c-.2-1.6-2.35-3-3.52-1.8a2.23,2.23,0,0,0-.75,1.39,5.33,5.33,0,0,0,3.63,6.08m34.45-1.72c-1-1.5-2-3.2-1.8-4.9s2.56-3.2,3.84-2a2.84,2.84,0,0,1,.75,1.49,5.9,5.9,0,0,1-3.95,6.72"/>
      <g id="Group_27236" data-name="Group 27236">
        <path id="Path_69070" data-name="Path 69070" d="M343.15,537.15a58.151,58.151,0,0,1,4.27-21.76m1.38,22.2a65.831,65.831,0,0,1,2.88-20.37m-5.76-1.9c.53-1.6-.2-3.4-.64-5s-.2-3.84,1.4-4.6,3.63,1.17,3.95,3-.1,3.84.2,5.65" fill="none" stroke="#000" stroke-miterlimit="10" stroke-width="0.83"/>
        <path id="Path_69071" data-name="Path 69071" d="M350.3,514.86a2.8,2.8,0,0,1,3.51-1.86l.33.13a4,4,0,0,1-3.09,3.84m-5.02-10.22,1.5,3.84m22.82,24.96a36.1,36.1,0,0,0-4.8-21.23c-.43-.64-1.7-1.17-1.7-.32m.85,19.1a38.29,38.29,0,0,1-2.13-18" fill="none" stroke="#000" stroke-miterlimit="10" stroke-width="0.83"/>
        <path id="Path_69072" data-name="Path 69072" d="M362.35,516a6.08,6.08,0,0,1-3.73-5.33,2.06,2.06,0,0,1,2.67,1.49m3.6.24a16.58,16.58,0,0,0-3.63-9.07,5.68,5.68,0,0,0-1.28,6.72m-19.1,29.13a21.6,21.6,0,0,1,9.28-1.6m10.9-2.68a20.3,20.3,0,0,1,12.05,1.39" fill="none" stroke="#000" stroke-miterlimit="10" stroke-width="0.83"/>
        <path id="Path_69073" data-name="Path 69073" d="M341.44,539.93a31.721,31.721,0,0,0,6.08,14.61m25.6-17.4a15.82,15.82,0,0,1-.85,9.92m-9.92-19.84a11.83,11.83,0,0,1,4.59,9.71,12.19,12.19,0,0,1-5.23,9.49m2.1-16.43c-2.35-2.77-7.25-2.77-9.92-.2a9.75,9.75,0,0,0-2,10.24,14.61,14.61,0,0,0,7.68,7.68" fill="none" stroke="#000" stroke-miterlimit="10" stroke-width="0.83"/>
      </g>
      <path id="Path_69074" data-name="Path 69074" d="M362.67,529.7c-.32-1-2-.75-3.1-.2-4.9,2.67-5,8.43-4.8,13.33a4.58,4.58,0,0,0,.75,2.67c1.17,1.4,3.73,1.5,5.33.64a9.39,9.39,0,0,0,3.52-3.84,36.392,36.392,0,0,0,2.35-5.12c.85-2.35,1.17-5.23-1.17-6.72-1.8-1.28-4.7-.85-6.5.32a9.21,9.21,0,0,0-3.41,4.91,25.34,25.34,0,0,0-1.39,6.4,5.37,5.37,0,0,0,.75,3.84,3.7,3.7,0,0,0,4.16,1.28"/>
      <g id="Group_27238" data-name="Group 27238">
        <g id="Group_27237" data-name="Group 27237">
          <path id="Path_69075" data-name="Path 69075" d="M346.8,553.58c1,4.7,4.37,8.32,8,11.52a98.266,98.266,0,0,0,15.89,11.41" fill="none" stroke="#000" stroke-miterlimit="10" stroke-width="0.83"/>
          <path id="Path_69076" data-name="Path 69076" d="M363.2,563.3a23.659,23.659,0,0,1,7.25-.75m2.25-19a105,105,0,0,0-3,18.24m2.9,3.5a57.647,57.647,0,0,1,7.89,6.61l-11,3.1m7.26.86a5.92,5.92,0,0,1,10.77-.11m-17.5,1.24a38.841,38.841,0,0,0,16.1,5m1.07-5.7,7.68,1.8a2.17,2.17,0,0,1,1.71,1,3,3,0,0,1,.32,1.39c0,2.35,0,4.8-1.07,6.93s-3.2,3.84-5.55,3.52a1.3,1.3,0,0,1-1-.43,2.07,2.07,0,0,1-.32-1.39l.64-7.36m-32.9-14.42c-4.05,2.67-5.65,7.9-6.08,12.8s0,9.92-1.4,14.5m-.1-3.1a17.5,17.5,0,0,0-7.79,1.07,32.3,32.3,0,0,0-.21,3.31,9.21,9.21,0,0,0,5.55,1.17" fill="none" stroke="#000" stroke-miterlimit="10" stroke-width="0.83"/>
          <path id="Path_69077" data-name="Path 69077" d="M351.04,574.8l9,3.52m4.44-3.42-5.44,5.23" fill="none" stroke="#000" stroke-miterlimit="10" stroke-width="0.83"/>
          <path id="Path_69078" data-name="Path 69078" d="M357.23,578.43c1.7,0,2.88,1.8,2.88,3.52a8.86,8.86,0,0,1-1.81,4.69l-5.12,8.53A7.46,7.46,0,0,1,351.8,597a3.06,3.06,0,0,1-3.41.11" fill="none" stroke="#000" stroke-miterlimit="10" stroke-width="0.83"/>
        </g>
        <path id="Path_69079" data-name="Path 69079" d="M380.48,518.9l4.9-.53c-5-.43-9.6,4.6-9,9.6s6.6,8.43,11.3,6.6a6.089,6.089,0,0,0,2.24-1.39,5.81,5.81,0,0,0,1.17-1.92,9.77,9.77,0,0,0-.11-8.11,7.35,7.35,0,0,0-6.83-3.95" fill="none" stroke="#000" stroke-miterlimit="10" stroke-width="0.74"/>
      </g>
      <path id="Path_69080" data-name="Path 69080" d="M377.07,530.86c.1-3.1,2.45-5.65,4.7-7.8,1-1,2.24-2,3.63-1.8a3.26,3.26,0,0,1,1.92,1.28,14.9,14.9,0,0,1,3.09,5.33,5.51,5.51,0,0,0,.85,2c1.17,1.4,3.4.85,5.23.2A14.7,14.7,0,0,0,384.11,516c-2.56-.32-5.33,0-7.15,1.8-3.52,3.2-2.13,9.07-4.05,13.44,1.5,0,3-.1,4.48-.1"/>
      <g id="Group_27239" data-name="Group 27239">
        <path id="Path_69081" data-name="Path 69081" d="M381.12,529.47a6.11,6.11,0,0,0,7.25.85m-6.72-4.7c-.43-.1-.32-1,.1-.85s.32,1-.1.85m5.87-.63c.32-.2.75.32.53.64s-.85.1-.85-.2m10.24.3a42.28,42.28,0,0,0-26.88-22.51" fill="none" stroke="#000" stroke-miterlimit="10" stroke-width="0.83"/>
        <path id="Path_69082" data-name="Path 69082" d="M370.56,505.47a27.38,27.38,0,0,1-.11-5.12l-5.87-3.1m-.85-.63c-1.17,4.16,4.7,8.75,2,12.05,1.17.1,2.35.32,3.52.43m.03-.43A40.239,40.239,0,0,1,379.41,517m17.92,8.42a5.14,5.14,0,0,0-3.95,2.45M373.8,546.43l9.4,13.44,8.85-3a4.281,4.281,0,0,0,1.81-1,4.52,4.52,0,0,0,1.28-2.56c.75-2.77-.75-7.9-1.5-10.67a19.09,19.09,0,0,0,3.63-16M373,525.3a12.82,12.82,0,0,1-6.4-7.89" fill="none" stroke="#000" stroke-miterlimit="10" stroke-width="0.83"/>
        <path id="Path_69083" data-name="Path 69083" d="M379.1,544.5a81,81,0,0,1,5,13.44m2.46-10.76c-.32-.43.32-1,.85-.75a2.28,2.28,0,0,1,.85,1.28l2.56,9.4m.43-13.77a13.11,13.11,0,0,1,2.45,8.21m.65,3.63a20.81,20.81,0,0,1,5.23,10.88m-9.78-7.9a40.21,40.21,0,0,1,1,12.37m9.1-4.48a5.74,5.74,0,0,1-5.44,3.84,4.739,4.739,0,0,0-2.13.11c-.64.32-1,1-1.5,1.4a4.5,4.5,0,0,1-4.48.64c-4.8-1.5-7.25-8.1-4.37-12.27m-.75,9.05a8.4,8.4,0,0,1-5.33-6.4,8.29,8.29,0,0,1,2.88-7.79m19.52,15.7a51.31,51.31,0,0,1,2.13,19.31,4.44,4.44,0,0,0,.32,2.88,13,13,0,0,1,1.06,1.48c.75,1.5-.75,3.3-2.35,3.52s-3.2-1-4.16-2.35M348.16,482.1c-9.17,4.05-4.48,20.48,6,18.45a10,10,0,0,0,7.79-8.85,10.24,10.24,0,0,0-4.15-8.71,10.54,10.54,0,0,0-9.64-.89Z" fill="none" stroke="#000" stroke-miterlimit="10" stroke-width="0.83"/>
        <path id="Path_69084" data-name="Path 69084" d="M350.93,487.66a4.42,4.42,0,0,0,4.59-5.12m-3.95,6.08-7-2.24m4.66,1.62a5.6,5.6,0,0,1-3.51,7.1l-.54.15m3.82-.98,5.55,4.48m-2.35-11.2c1.92-.1,3.4,1.7,3.73,3.63s-.43,3.73-1.07,5.55m1.62-6.93,3.52.2M337.28,598.5c5.55,1.6,11.4-.43,17.07-1a63.007,63.007,0,0,1,11,.21l13.12,1m-13.03-8c1.6-1,3.63,0,5.33.53,8.03,2.77,17.03-1.23,25.18,1.07m-83.1-28.48,12.48-2.35c1.4-.2,2.88-.43,3.95.43a4,4,0,0,1,1.07,2.67,120,120,0,0,1,1.71,17.43m67.3-5h17.07M326.2,480.84l10.77,21.55m-2.25-49.08,11.52,23.36m10.66-15.76,12.37,25.06" fill="none" stroke="#000" stroke-miterlimit="10" stroke-width="0.83"/>
      </g>
      <g id="Group_27240" data-name="Group 27240" style="isolation: isolate">
        <text id="SIGN-UP" transform="translate(114.53 80.75)" font-size="12" font-family="Arial-BoldMT, Arial" font-weight="700" letter-spacing="-0.02em"><tspan x="0" y="0">SIGN-U</tspan><tspan y="0">P</tspan></text>
      </g>
      <g id="Group_27241" data-name="Group 27241" style="isolation: isolate">
        <text id="Fill_the_basic_details" data-name="Fill the basic details" transform="translate(114.53 99.95)" font-size="12" font-family="ArialMT, Arial"><tspan x="0" y="0">Fill the basic details</tspan></text>
      </g>
      <g id="Group_27242" data-name="Group 27242" style="isolation: isolate">
        <text id="to_get_started" data-name="to get started" transform="translate(114.53 114.03)" font-size="12" font-family="ArialMT, Arial"><tspan x="0" y="0">to get started</tspan></text>
      </g>
      <path id="Path_69085" data-name="Path 69085" d="M115.84,87.13H239.9" fill="none" stroke="#000" stroke-miterlimit="10" stroke-width="0.26"/>
      <g id="Group_27243" data-name="Group 27243" style="isolation: isolate">
        <text id="BROWSE" transform="translate(174.68 164.6)" font-size="12" font-family="Arial-BoldMT, Arial" font-weight="700"><tspan x="0" y="0">BROWSE</tspan></text>
      </g>
      <g id="Group_27244" data-name="Group 27244" style="isolation: isolate">
        <text id="Explore_and_apply" data-name="Explore and apply" transform="translate(174.68 183.8)" font-size="12" font-family="ArialMT, Arial"><tspan x="0" y="0">Explore and apply</tspan></text>
      </g>
      <g id="Group_27245" data-name="Group 27245" style="isolation: isolate">
        <text id="for_opportunities" data-name="for opportunities" transform="translate(174.68 197.89)" font-size="12" font-family="ArialMT, Arial"><tspan x="0" y="0">for opportunities</tspan></text>
      </g>
      <g id="Group_27246" data-name="Group 27246" style="isolation: isolate">
        <text id="to_your_preferences" data-name="to your preferences" transform="translate(174.68 211.96)" font-size="12" font-family="ArialMT, Arial"><tspan x="0" y="0">to your preferences</tspan></text>
      </g>
      <g id="Group_27248" data-name="Group 27248">
        <path id="Path_69086" data-name="Path 69086" d="M324.27,157l2.77,5.23,5.76,1.07-4.05,4.27.75,5.76-5.23-2.45-5.23,2.45.75-5.76-4.16-4.27,5.87-1.07Z" fill="none" stroke="#eb9800" stroke-linejoin="round" stroke-width="2.32"/>
        <g id="Group_27247" data-name="Group 27247">
          <path id="Path_69087" data-name="Path 69087" d="M340.05,153.9v29a1.46,1.46,0,0,1-1.42,1.49H309.97a1.46,1.46,0,0,1-1.49-1.42V145.58a1.46,1.46,0,0,1,1.42-1.49h20.44" fill="none" stroke="#6d6e6d" stroke-linecap="round" stroke-linejoin="round" stroke-width="2.32"/>
          <path id="Path_69088" data-name="Path 69088" d="M340.05,153.9h-8.43a1.46,1.46,0,0,1-1.49-1.42s0,0,0-.07V144Z" fill="none" stroke="#6d6e6d" stroke-linejoin="round" stroke-width="2.32"/>
        </g>
      </g>
      <g id="Group_27249" data-name="Group 27249" style="isolation: isolate">
        <text id="_0" data-name="0" transform="translate(51.91 100.71) rotate(0.92)" fill="#eb9800" font-size="27" font-family="ArialMT, Arial"><tspan x="0" y="0">0</tspan></text>
      </g>
      <g id="Group_27250" data-name="Group 27250" style="isolation: isolate">
        <text id="_1" data-name="1" transform="translate(65.35 100.92) rotate(0.92)" fill="#eb9800" font-size="27" font-family="ArialMT, Arial"><tspan x="0" y="0">1</tspan></text>
      </g>
      <g id="Group_27251" data-name="Group 27251" style="isolation: isolate">
        <text id="STEP" transform="translate(51.37 80.26)" fill="#eb9800" font-size="11" font-family="ArialMT, Arial" letter-spacing="-0.02em"><tspan x="0" y="0">STE</tspan><tspan y="0">P</tspan></text>
      </g>
      <g id="Group_27252" data-name="Group 27252" style="isolation: isolate">
        <text id="_0-2" data-name="0" transform="translate(113.43 185.06) rotate(0.92)" fill="#eb9800" font-size="27" font-family="ArialMT, Arial"><tspan x="0" y="0">0</tspan></text>
      </g>
      <g id="Group_27253" data-name="Group 27253" style="isolation: isolate">
        <text id="_2" data-name="2" transform="translate(126.87 185.27) rotate(0.92)" fill="#eb9800" font-size="27" font-family="ArialMT, Arial"><tspan x="0" y="0">2</tspan></text>
      </g>
      <g id="Group_27254" data-name="Group 27254" style="isolation: isolate">
        <text id="STEP-2" data-name="STEP" transform="translate(112.89 164.61)" fill="#eb9800" font-size="11" font-family="ArialMT, Arial" letter-spacing="-0.02em"><tspan x="0" y="0">STE</tspan><tspan y="0">P</tspan></text>
      </g>
      <g id="Group_27255" data-name="Group 27255" style="isolation: isolate">
        <text id="_0-3" data-name="0" transform="translate(76.27 299.71) rotate(0.92)" fill="#eb9800" font-size="27" font-family="ArialMT, Arial"><tspan x="0" y="0">0</tspan></text>
      </g>
      <g id="Group_27256" data-name="Group 27256" style="isolation: isolate">
        <text id="_3" data-name="3" transform="translate(89.71 299.92) rotate(0.92)" fill="#eb9800" font-size="27" font-family="ArialMT, Arial"><tspan x="0" y="0">3</tspan></text>
      </g>
      <g id="Group_27257" data-name="Group 27257" style="isolation: isolate">
        <text id="STEP-3" data-name="STEP" transform="translate(75.73 279.26)" fill="#eb9800" font-size="11" font-family="ArialMT, Arial" letter-spacing="-0.02em"><tspan x="0" y="0">STE</tspan><tspan y="0">P</tspan></text>
      </g>
      <g id="Group_27258" data-name="Group 27258" style="isolation: isolate">
        <text id="_0-4" data-name="0" transform="translate(140.11 401.02) rotate(0.92)" fill="#eb9800" font-size="27" font-family="ArialMT, Arial"><tspan x="0" y="0">0</tspan></text>
      </g>
      <g id="Group_27259" data-name="Group 27259" style="isolation: isolate">
        <text id="_4" data-name="4" transform="translate(153.55 401.23) rotate(0.92)" fill="#eb9800" font-size="27" font-family="ArialMT, Arial"><tspan x="0" y="0">4</tspan></text>
      </g>
      <g id="Group_27260" data-name="Group 27260" style="isolation: isolate">
        <text id="STEP-4" data-name="STEP" transform="translate(139.56 380.57)" fill="#eb9800" font-size="11" font-family="ArialMT, Arial" letter-spacing="-0.02em"><tspan x="0" y="0">STE</tspan><tspan y="0">P</tspan></text>
      </g>
      <g id="Group_27261" data-name="Group 27261">
        <path id="Path_69089" data-name="Path 69089" d="M174.72,170.97H303.8M142.93,285.63H279.9" fill="none" stroke="#000" stroke-miterlimit="10" stroke-width="0.26"/>
      </g>
      <g id="Group_27262" data-name="Group 27262" style="isolation: isolate">
        <text id="GET_CONNECTED" data-name="GET CONNECTED" transform="translate(142.67 279.25)" font-size="12" font-family="Arial-BoldMT, Arial" font-weight="700"><tspan x="0" y="0">GET CONNECTED</tspan></text>
      </g>
      <g id="Group_27263" data-name="Group 27263" style="isolation: isolate">
        <text id="Expect_a_call_from_ConnectFor._Get_connected_to_an_NGO" data-name="Expect a call from ConnectFor. Get connected to an NGO" transform="translate(142.67 287.45)" font-size="12" font-family="ArialMT, Arial"><tspan x="0" y="11">Expect a call from </tspan><tspan x="0" y="25">ConnectFor. Get </tspan><tspan x="0" y="39">connected to an NGO</tspan></text>
      </g>
      <g id="Group_27267" data-name="Group 27267">
        <g id="Group_27266" data-name="Group 27266">
          <g id="Group_27265" data-name="Group 27265">
            <path id="Path_69090" data-name="Path 69090" d="M306.88,280.2a7.33,7.33,0,0,0-.21-3.41,7.49,7.49,0,0,0-2-3.41,5.52,5.52,0,0,0-3.41-1.71,5.3,5.3,0,0,0-2.24.11" fill="none" stroke="#eb9800" stroke-linecap="round" stroke-linejoin="round" stroke-width="1.99"/>
            <path id="Path_69091" data-name="Path 69091" d="M312.32,282.86a12.74,12.74,0,0,0,0-8.21,15.1,15.1,0,0,0-3.09-5.23,13.279,13.279,0,0,0-5-3.31,10,10,0,0,0-6.83,0" fill="none" stroke="#78ddcf" stroke-linecap="round" stroke-linejoin="round" stroke-width="1.99"/>
            <g id="Group_27264" data-name="Group 27264">
              <path id="Path_69092" data-name="Path 69092" d="M289.5,276.9c-1.7,1.7-1.28,5.55,1.28,8.85s6.08,4.8,8.1,3.52" fill="none" stroke="#3187be" stroke-linecap="round" stroke-linejoin="round" stroke-width="1.99"/>
              <path id="Path_69093" data-name="Path 69093" d="M304.64,296.73a13.522,13.522,0,0,1-2,1.49c-2.88,2.13-9.8-1.8-15.68-9.6s-8-15.47-5.23-17.7c1.5-1.17,1.8-1.5,2-1.5" fill="none" stroke="#3187be" stroke-linecap="round" stroke-linejoin="round" stroke-width="1.99"/>
            </g>
          </g>
          <path id="Path_69094" data-name="Path 69094" d="M305.28,295.55l-5.48-7.25a.87.87,0,0,1,.14-1.22l.08-.06,2.45-1.8a.87.87,0,0,1,1.22.14l5.5,7.33a.87.87,0,0,1-.14,1.22l-.08.06-2.45,1.8a.76.76,0,0,1-1.28-.21Zm-14.83-19.3L285,269a.87.87,0,0,1,.14-1.22l.08-.06,2.45-1.8a.87.87,0,0,1,1.22.14l5.5,7.33a.87.87,0,0,1-.14,1.22l-.08.06-2.45,1.8a.82.82,0,0,1-1.28-.21Z" fill="none" stroke="#3187be" stroke-linejoin="round" stroke-width="1.99"/>
        </g>
        <path id="Path_69095" data-name="Path 69095" d="M203.1,385.9H354.35" fill="none" stroke="#000" stroke-miterlimit="10" stroke-width="0.26"/>
      </g>
      <g id="Group_27268" data-name="Group 27268" style="isolation: isolate">
        <text id="START_WORKING" data-name="START WORKING" transform="translate(202.82 379.54)" font-size="12" font-family="Arial-BoldMT, Arial" font-weight="700"><tspan x="0" y="0">S</tspan><tspan y="0" letter-spacing="-0.07em">T</tspan><tspan y="0">ART WORKING</tspan></text>
      </g>
      <g id="Group_27269" data-name="Group 27269" style="isolation: isolate">
        <text id="If_you_and_the_NGO_find_it_a_good_fit_start_working." data-name="If you and the NGO find it a good fit, start working." transform="translate(202.82 387.74)" font-size="12" font-family="ArialMT, Arial"><tspan x="0" y="11">If you and the NGO find it </tspan><tspan x="0" y="25">a good fit, start working.</tspan></text>
      </g>
      <path id="Path_69096" data-name="Path 69096" d="M386.13,361.9H372.6v5.65a3.841,3.841,0,0,1,1.17-.21,2.562,2.562,0,0,1-.21,5.12,3.11,3.11,0,0,1-1-.21v5.65h5.65a3,3,0,0,0-.11,1.39,2.63,2.63,0,0,0,2.56,2.13,2.6,2.6,0,0,0,2.56-2.56,2,2,0,0,0-.21-.85h5.65V364.35a2.57,2.57,0,0,0-2.52-2.45Z" fill="#3187be"/>
      <path id="Path_69097" data-name="Path 69097" d="M388.6,391V377.8h-5.65a3.831,3.831,0,0,1,.21,1.17,2.562,2.562,0,1,1-5.12-.21,3.121,3.121,0,0,1,.21-1H372.6v5.65a3,3,0,0,0-1.39-.11,2.63,2.63,0,0,0-2.13,2.56,2.6,2.6,0,0,0,2.56,2.56,2,2,0,0,0,.85-.21v5.65h13.23A2.87,2.87,0,0,0,388.6,391Z" fill="#eb9800"/>
      <path id="Path_69098" data-name="Path 69098" d="M359.25,393.9h13.33v-5.65a3.832,3.832,0,0,1-1.17.21,2.562,2.562,0,0,1,.21-5.12,3.11,3.11,0,0,1,1,.21V377.9h-5.65a3,3,0,0,0,.11-1.39,2.63,2.63,0,0,0-2.56-2.13,2.6,2.6,0,0,0-2.56,2.56,2,2,0,0,0,.21.85h-5.65v13.33a2.75,2.75,0,0,0,2.73,2.77Z" fill="#78ddcf"/>
      <path id="Path_69099" data-name="Path 69099" d="M63.04,114.54S60.7,154,97.38,168.94" fill="none" stroke="#eb9800" stroke-miterlimit="10" stroke-width="1"/>
      <path id="Path_69100" data-name="Path 69100" d="M93.23,171.5l2.88-3.1-.22-4.4,7.47,7Z" fill="#eb9800"/>
      <path id="Path_69101" data-name="Path 69101" d="M89.6,312.62s-3.63,44.9,32.85,60.38" fill="none" stroke="#eb9800" stroke-miterlimit="10" stroke-width="1"/>
      <path id="Path_69102" data-name="Path 69102" d="M118.3,375.55l3-3.1-.2-4.27,7.36,6.93Z" fill="#eb9800"/>
      <path id="Path_69103" data-name="Path 69103" d="M348.9,191s3.73,39.57-20.9,68.7" fill="none" stroke="#eb9800" stroke-miterlimit="10" stroke-width="1"/>
      <path id="Path_69104" data-name="Path 69104" d="M322.8,265.26l4-10.77,1.5,4.8,4.9,1.07Z" fill="#eb9800"/>
      <path id="Path_69105" data-name="Path 69105" d="M250.67,75.3v1.8h13V75.3Zm0-5.24v1.8h22v-1.8Zm0-5.33v1.8h22v-1.8Z"/>
      <g id="Group_27272" data-name="Group 27272">
        <path id="Path_69106" data-name="Path 69106" d="M286.93,58l.53-2,1.6.64c-1.07,2.24-4.48,9-4.16,9.8a1.59,1.59,0,0,0,1.49,1.17l.2-1.5s-.32,0-.32-.1c-.1-.32,4.48-9.4,4.48-9.4l.32-.75-.75-.2-2.77-1c-.1-4.37-4.05-4.37-6.6,1.6-1.5,3.52-2.77,7-4.05,10.67l6.2,2.35q2.155-5.572,3.84-11.31ZM274.56,75.93l-1.4,1.7.75,4.48.64.2,1-2.67a.86.86,0,0,1-.32-1.07,1,1,0,0,1,1.17-.64,1.08,1.08,0,0,1,.64,1.17,1.06,1.06,0,0,1-.85.64l-1,2.67.64.2,3.3-2.77.1-2.45-4.7-1.5Z" fill="#eb9800"/>
        <path id="Path_69107" data-name="Path 69107" d="M283,69.53l-6.2-2.24-2.24,7.8,5.12,1.8,3.3-7.36Z" fill="#eb9800"/>
      </g>
      <path id="Path_69108" data-name="Path 69108" d="M259.2,83.3l1,1.4s4.05-4.16,4.05-3.63a1.79,1.79,0,0,1-.75,1c-.53.53-.85.85-.85,1.4,0,.75.32,1.07,1.5,1.17a6.22,6.22,0,0,0,2.77-.64,5.35,5.35,0,0,1,1.49-.32c.1.32.32.53.85.64a3.65,3.65,0,0,0,1.39-.21l.2-.1V84a2.73,2.73,0,0,0-.11,1.81c.2.75.75.85,1.6.64a9,9,0,0,1,2.45,0l.2-1.7a9.08,9.08,0,0,0-2.56,0c0-.1,0-.1.1-.2h0c0-.2.1-.53.1-.75.2-1-.1-1.5-.85-1.6a3.25,3.25,0,0,0-1.71.32.37.37,0,0,0-.21.11c-.85-.85-2-.53-3.3-.1l-1.4.32a2.23,2.23,0,0,0,.85-1.71c-.01-3.05-6.84,2.18-6.84,2.18Z"/>
      <path id="Path_69109" data-name="Path 69109" d="M284.7,75.3V88.5a5.08,5.08,0,0,1-5,5H251.64a5.08,5.08,0,0,1-5-5V65.37a5.08,5.08,0,0,1,5-5h24.1" fill="none" stroke="#eb9800" stroke-linecap="round" stroke-miterlimit="10" stroke-width="2.75"/>
    </g>
  </g>
</svg>
